<?xml version="1.0" encoding="UTF-8"?>
<svg xmlns="http://www.w3.org/2000/svg" xmlns:xlink="http://www.w3.org/1999/xlink" viewBox="0 0 688.73 1024.3">
  <defs>
    <style>
      .cls-1 {
        fill: #789900;
      }

      .cls-2 {
        fill: url(#Degradado_sin_nombre_6-2);
      }

      .cls-2, .cls-3, .cls-4, .cls-5, .cls-6, .cls-7, .cls-8, .cls-9, .cls-10, .cls-11, .cls-12, .cls-13, .cls-14 {
        mix-blend-mode: screen;
      }

      .cls-3 {
        fill: url(#Degradado_sin_nombre_6);
      }

      .cls-15 {
        filter: url(#drop-shadow-2);
      }

      .cls-4 {
        fill: url(#Degradado_sin_nombre_6-8);
      }

      .cls-16, .cls-17, .cls-18, .cls-19, .cls-20, .cls-21 {
        stroke-linecap: round;
        stroke-linejoin: round;
      }

      .cls-16, .cls-17, .cls-19, .cls-21 {
        stroke: #262626;
      }

      .cls-16, .cls-22, .cls-19, .cls-21 {
        fill: none;
      }

      .cls-16, .cls-20 {
        stroke-width: 3.29px;
      }

      .cls-23, .cls-24, .cls-25, .cls-18, .cls-20 {
        fill: #fff;
      }

      .cls-23, .cls-25 {
        stroke-miterlimit: 10;
      }

      .cls-23, .cls-25, .cls-18, .cls-20 {
        stroke: #fff;
      }

      .cls-17, .cls-19 {
        stroke-width: 5.58px;
      }

      .cls-17, .cls-26 {
        fill: #ccc;
      }

      .cls-27 {
        opacity: .25;
      }

      .cls-28 {
        fill: #262626;
      }

      .cls-29, .cls-25 {
        opacity: .23;
      }

      .cls-5 {
        fill: url(#Degradado_sin_nombre_6-10);
      }

      .cls-30 {
        fill: #e5ff85;
      }

      .cls-31 {
        fill: #f2f2f2;
      }

      .cls-32 {
        isolation: isolate;
      }

      .cls-6 {
        fill: url(#Degradado_sin_nombre_6-11);
      }

      .cls-33 {
        fill: #fdd84a;
      }

      .cls-34 {
        fill: #9760ef;
      }

      .cls-35 {
        fill: #ffd900;
      }

      .cls-18, .cls-21 {
        stroke-width: 3px;
      }

      .cls-36 {
        fill: #d2effa;
      }

      .cls-37 {
        filter: url(#outer-glow-1);
      }

      .cls-7 {
        fill: url(#Degradado_sin_nombre_6-5);
      }

      .cls-8 {
        fill: url(#Degradado_sin_nombre_6-3);
      }

      .cls-9 {
        fill: url(#Degradado_sin_nombre_6-12);
      }

      .cls-10 {
        fill: url(#Degradado_sin_nombre_6-9);
      }

      .cls-38 {
        fill: #72db58;
      }

      .cls-39 {
        filter: url(#drop-shadow-3);
      }

      .cls-11 {
        opacity: .85;
      }

      .cls-12 {
        fill: url(#Degradado_sin_nombre_6-6);
      }

      .cls-40 {
        fill: #def6ff;
      }

      .cls-41 {
        fill: #bcbcbc;
      }

      .cls-13 {
        fill: url(#Degradado_sin_nombre_6-7);
      }

      .cls-42 {
        fill: #a5e100;
      }

      .cls-43 {
        clip-path: url(#clippath);
      }

      .cls-44 {
        fill: #d9d9d9;
      }

      .cls-14 {
        fill: url(#Degradado_sin_nombre_6-4);
      }
    </style>
    <clipPath id="clippath">
      <rect class="cls-22" x="385" y="12.09" width="118.38" height="36.79"/>
    </clipPath>
    <filter id="outer-glow-1" x="179" y="609.67" width="237.12" height="237.12" filterUnits="userSpaceOnUse">
      <feOffset dx="0" dy="0"/>
      <feGaussianBlur result="blur" stdDeviation="25"/>
      <feFlood flood-color="#fff" flood-opacity="1"/>
      <feComposite in2="blur" operator="in"/>
      <feComposite in="SourceGraphic"/>
    </filter>
    <radialGradient id="Degradado_sin_nombre_6" data-name="Degradado sin nombre 6" cx="1903.04" cy="2674.97" fx="1903.04" fy="2674.97" r="119.89" gradientTransform="translate(-3250.78 -1875.66) scale(1.86 .97)" gradientUnits="userSpaceOnUse">
      <stop offset="0" stop-color="#fff"/>
      <stop offset="0" stop-color="#fff" stop-opacity=".96"/>
      <stop offset=".05" stop-color="#fff" stop-opacity=".78"/>
      <stop offset=".09" stop-color="#fff" stop-opacity=".61"/>
      <stop offset=".14" stop-color="#fff" stop-opacity=".47"/>
      <stop offset=".2" stop-color="#fff" stop-opacity=".34"/>
      <stop offset=".25" stop-color="#fff" stop-opacity=".23"/>
      <stop offset=".32" stop-color="#fff" stop-opacity=".15"/>
      <stop offset=".4" stop-color="#fff" stop-opacity=".08"/>
      <stop offset=".49" stop-color="#fff" stop-opacity=".03"/>
      <stop offset=".63" stop-color="#fff" stop-opacity="0"/>
      <stop offset="1" stop-color="#fff" stop-opacity="0"/>
    </radialGradient>
    <radialGradient id="Degradado_sin_nombre_6-2" data-name="Degradado sin nombre 6" cx="1697.62" cy="3543.13" fx="1697.62" fy="3543.13" r="82.86" gradientTransform="translate(-2552.54 -1676.02) scale(1.68 .68)" xlink:href="#Degradado_sin_nombre_6"/>
    <radialGradient id="Degradado_sin_nombre_6-3" data-name="Degradado sin nombre 6" cx="2363.6" cy="6844.79" fx="2363.6" fy="6844.79" r="119.88" gradientTransform="translate(-5562.35 -1671.09) scale(2.48 .35)" xlink:href="#Degradado_sin_nombre_6"/>
    <radialGradient id="Degradado_sin_nombre_6-4" data-name="Degradado sin nombre 6" cx="2363.6" cy="18401.75" fx="2363.6" fy="18401.75" r="119.93" gradientTransform="translate(-5562.35 -1599.1) scale(2.48 .13)" xlink:href="#Degradado_sin_nombre_6"/>
    <radialGradient id="Degradado_sin_nombre_6-5" data-name="Degradado sin nombre 6" cx="2060.28" cy="8480.68" fx="2060.28" fy="8480.68" r="119.91" gradientTransform="translate(-3895.22 -1664.41) scale(2.03 .28)" xlink:href="#Degradado_sin_nombre_6"/>
    <radialGradient id="Degradado_sin_nombre_6-6" data-name="Degradado sin nombre 6" cx="2060.28" cy="52967.29" fx="2060.28" fy="52967.29" r="119.93" gradientTransform="translate(-3895.22 -1397.5) scale(2.03 .04)" xlink:href="#Degradado_sin_nombre_6"/>
    <radialGradient id="Degradado_sin_nombre_6-7" data-name="Degradado sin nombre 6" cx="4687.08" cy="9130.37" fx="4687.08" fy="9130.37" r="119.89" gradientTransform="translate(9180.99 -8011.53) rotate(90) scale(1.86 .97)" xlink:href="#Degradado_sin_nombre_6"/>
    <radialGradient id="Degradado_sin_nombre_6-8" data-name="Degradado sin nombre 6" cx="4789.63" cy="12803.97" fx="4789.63" fy="12803.97" r="82.86" gradientTransform="translate(8981.35 -7313.3) rotate(90) scale(1.68 .68)" xlink:href="#Degradado_sin_nombre_6"/>
    <radialGradient id="Degradado_sin_nombre_6-9" data-name="Degradado sin nombre 6" cx="4457.33" cy="24772.1" fx="4457.33" fy="24772.1" r="119.88" gradientTransform="translate(8976.42 -10323.1) rotate(90) scale(2.48 .35)" xlink:href="#Degradado_sin_nombre_6"/>
    <radialGradient id="Degradado_sin_nombre_6-10" data-name="Degradado sin nombre 6" cx="4457.33" cy="68089.69" fx="4457.33" fy="68089.69" r="119.93" gradientTransform="translate(8904.43 -10323.1) rotate(90) scale(2.48 .13)" xlink:href="#Degradado_sin_nombre_6"/>
    <radialGradient id="Degradado_sin_nombre_6-11" data-name="Degradado sin nombre 6" cx="4611.05" cy="30754.58" fx="4611.05" fy="30754.58" r="119.91" gradientTransform="translate(8969.74 -8655.97) rotate(90) scale(2.03 .28)" xlink:href="#Degradado_sin_nombre_6"/>
    <radialGradient id="Degradado_sin_nombre_6-12" data-name="Degradado sin nombre 6" cx="4611.05" cy="209559.57" fx="4611.05" fy="209559.57" r="119.93" gradientTransform="translate(8702.83 -8655.97) rotate(90) scale(2.03 .04)" xlink:href="#Degradado_sin_nombre_6"/>
    <filter id="drop-shadow-2" x="525.56" y="405.43" width="69.84" height="71.76" filterUnits="userSpaceOnUse">
      <feOffset dx="2" dy="2"/>
      <feGaussianBlur result="blur-2" stdDeviation="1"/>
      <feFlood flood-color="#000" flood-opacity=".75"/>
      <feComposite in2="blur-2" operator="in"/>
      <feComposite in="SourceGraphic"/>
    </filter>
    <filter id="drop-shadow-3" x="287.53" y="115.33" width="152.88" height="91.92" filterUnits="userSpaceOnUse">
      <feOffset dx="2.12" dy="2.12"/>
      <feGaussianBlur result="blur-3" stdDeviation="1.06"/>
      <feFlood flood-color="#000" flood-opacity=".75"/>
      <feComposite in2="blur-3" operator="in"/>
      <feComposite in="SourceGraphic"/>
    </filter>
  </defs>
  <g class="cls-32">
    <g id="Layer_2" data-name="Layer 2">
      <g id="Gashapon">
        <g>
          <g>
            <ellipse class="cls-27" cx="432.13" cy="817.45" rx="256.6" ry="47.35"/>
            <g>
              <g>
                <path class="cls-24" d="M647.85,773.05h-7.93v-251.48c5.89,0,8.4-4.73,8.4-10.05V66.04c0-4.34-3.52-7.87-7.86-7.87h-6.04V17.89c0-8.34-6.76-15.09-15.09-15.09h-349.92c-8.34,0-15.09,6.76-15.09,15.09v40.29h-6.04c-4.34,0-7.86,3.52-7.86,7.87v445.48c0,5.32,2.51,10.05,8.06,10.05h.34v251.48h-7.92c-2.89,0-5.23,2.34-5.23,5.23v31.13c0,2.89,2.34,5.23,5.23,5.23h406.98c2.89,0,5.23-2.34,5.23-5.23v-31.13c0-2.89-2.34-5.23-5.23-5.23Z"/>
                <g>
                  <path class="cls-40" d="M606.34,92.59h-323.98c-4.6,0-8.33,3.73-8.33,8.33v359.33L614.68,119.61v-18.69c0-4.6-3.73-8.33-8.33-8.33Z"/>
                  <path class="cls-36" d="M274.04,460.25v18.69c0,4.6,3.73,8.33,8.33,8.33h323.98c4.6,0,8.33-3.73,8.33-8.33V119.61l-340.64,340.64Z"/>
                </g>
                <rect class="cls-30" x="291.2" y="521.54" width="305.97" height="251.51"/>
                <rect class="cls-19" x="248.79" y="521.57" width="391.13" height="251.48"/>
                <path class="cls-24" d="M363.27,521.54v193.91c0,6.41,5.19,11.6,11.6,11.6h138.97c6.41,0,11.6-5.19,11.6-11.6v-193.91h-162.17Z"/>
                <path class="cls-26" d="M377.85,521.54v181.29c0,5.99,4.26,10.85,9.52,10.85h113.99c5.26,0,9.52-4.86,9.52-10.85v-181.29h-133.02Z"/>
                <path class="cls-19" d="M363.27,521.54v193.91c0,6.41,5.19,11.6,11.6,11.6h138.97c6.41,0,11.6-5.19,11.6-11.6v-193.91h-162.17Z"/>
                <rect class="cls-42" x="614.68" y="521.57" width="25.25" height="251.48"/>
                <rect class="cls-42" x="248.46" y="521.57" width="25.25" height="251.48"/>
                <rect class="cls-19" x="614.68" y="521.57" width="25.25" height="251.48"/>
                <rect class="cls-19" x="248.46" y="521.57" width="25.25" height="251.48"/>
                <path class="cls-42" d="M637.47,814.64H251.24v-26.41h381.91c2.38,0,4.32,1.93,4.32,4.32v22.09Z"/>
                <rect class="cls-19" x="235.64" y="773.05" width="417.44" height="41.59" rx="5.23" ry="5.23"/>
                <g>
                  <g>
                    <circle class="cls-33" cx="444.21" cy="660.58" r="53.09" transform="translate(-251.23 1047.95) rotate(-85.2)"/>
                    <circle class="cls-19" cx="444.21" cy="660.58" r="53.09" transform="translate(-251.23 1047.95) rotate(-85.2)"/>
                  </g>
                  <g>
                    <circle class="cls-28" cx="444.21" cy="660.58" r="35.43" transform="translate(-251.07 1048.24) rotate(-85.22)"/>
                    <circle class="cls-19" cx="444.21" cy="660.58" r="35.43" transform="translate(-251.07 1048.24) rotate(-85.22)"/>
                  </g>
                  <g>
                    <path class="cls-33" d="M490.51,666.39v-12.14s-37.19-16.74-92.22-.76v12.99s39.19,14.17,92.22-.09Z"/>
                    <path class="cls-19" d="M487.79,666v-11.43s-35-15.76-86.79-.72v12.23s36.88,13.33,86.79-.08Z"/>
                  </g>
                </g>
                <g>
                  <g>
                    <path class="cls-31" d="M497.31,558.45h-106.19l5.78-17.81c.8-2.48,3.11-4.16,5.72-4.16h83.18c2.61,0,4.91,1.68,5.72,4.16l5.78,17.81Z"/>
                    <path class="cls-19" d="M497.31,558.45h-106.19l5.78-17.81c.8-2.48,3.11-4.16,5.72-4.16h83.18c2.61,0,4.91,1.68,5.72,4.16l5.78,17.81Z"/>
                    <path class="cls-28" d="M471.04,550.65h-53.66c-1.33,0-2.34-1.21-2.09-2.52l.66-3.5c.19-1,1.07-1.73,2.09-1.73h52.34c1.02,0,1.9.73,2.09,1.73l.66,3.5c.25,1.31-.76,2.52-2.09,2.52Z"/>
                  </g>
                  <path class="cls-17" d="M391.12,558.45h106.19v29.98c0,3.53-2.87,6.4-6.4,6.4h-93.4c-3.53,0-6.4-2.87-6.4-6.4v-29.98h0Z"/>
                </g>
                <rect class="cls-19" x="226.94" y="673.7" width="136.34" height="114.53"/>
                <g>
                  <path class="cls-44" d="M633.26,73.7v432.47H255.45V73.7h-15.06v437.82c0,5.32,2.51,10.05,8.06,10.05h5.43s380.93,0,380.93,0h5.1c5.89,0,8.4-4.73,8.4-10.05V73.7h-15.06Z"/>
                  <path class="cls-19" d="M633.26,73.7v432.47H255.45V73.7h-15.06v437.82c0,5.32,2.51,10.05,8.06,10.05h5.43s380.93,0,380.93,0h5.1c5.89,0,8.4-4.73,8.4-10.05V73.7h-15.06Z"/>
                </g>
                <path class="cls-19" d="M248.26,58.18h392.2c4.34,0,7.87,3.52,7.87,7.87v7.65H240.39v-7.65c0-4.34,3.52-7.87,7.87-7.87Z"/>
                <path class="cls-42" d="M254.3,12.99v45.19h380.11V12.99c0-5.63-3.62-10.2-8.09-10.2h-363.92c-4.47,0-8.09,4.56-8.09,10.2Z"/>
                <path class="cls-19" d="M269.39,2.79h349.93c8.33,0,15.09,6.76,15.09,15.09v40.29H254.3V17.89c0-8.33,6.76-15.09,15.09-15.09Z"/>
                <g>
                  <g>
                    <rect class="cls-24" x="219.3" y="654.67" width="151.61" height="19.03" rx="5.7" ry="5.7"/>
                    <rect class="cls-30" x="229.51" y="654.67" width="131.19" height="19.03"/>
                    <rect class="cls-19" x="219.3" y="654.67" width="151.61" height="19.03" rx="5.7" ry="5.7"/>
                  </g>
                  <g>
                    <rect class="cls-24" x="211.19" y="788.23" width="167.83" height="42.19" rx="5.64" ry="5.64"/>
                    <path class="cls-42" d="M225.86,805.12v25.31h138.37v-25.31c0-1.56-1.35-2.83-3.01-2.83h-132.35c-1.66,0-3.01,1.27-3.01,2.83Z"/>
                    <rect class="cls-19" x="211.19" y="788.23" width="167.83" height="42.19" rx="5.64" ry="5.64"/>
                  </g>
                  <g>
                    <rect class="cls-1" x="226.94" y="673.7" width="136.34" height="114.53"/>
                    <g>
                      <rect class="cls-42" x="226.94" y="673.7" width="14.62" height="114.53"/>
                      <rect class="cls-19" x="226.94" y="673.7" width="14.62" height="114.53"/>
                    </g>
                    <g>
                      <rect class="cls-42" x="349.31" y="673.7" width="13.96" height="114.53"/>
                      <rect class="cls-19" x="349.31" y="673.7" width="13.96" height="114.53"/>
                    </g>
                  </g>
                  <g>
                    <path class="cls-24" d="M295.1,599.59c-37.65,0-68.17,24.36-68.17,55.09h136.34c0-30.73-30.52-55.09-68.17-55.09Z"/>
                    <path class="cls-42" d="M295.1,611.63c-34.87,0-52.66,21.52-56.7,43.05h113.39c-4.84-23.43-21.83-43.05-56.7-43.05Z"/>
                    <path class="cls-19" d="M295.1,599.59c-37.65,0-68.17,24.36-68.17,55.09h136.34c0-30.73-30.52-55.09-68.17-55.09Z"/>
                  </g>
                </g>
              </g>
              <g class="cls-43">
                <g>
                  <path d="M427.25,21.38h18.08v17.86h-2.57l1.51,4.09h-7.31l-1.51-4.09h-8.2v-17.86ZM432.41,26.48v7.65h7.75v-7.65h-7.75Z"/>
                  <path d="M446.62,21.38h5.17v12.76h7.75v-12.76h5.17v17.86h-18.08v-17.86Z"/>
                  <path d="M484.07,21.38v17.86h-18.08v-21.69h5.17v3.83h12.91ZM478.9,26.48h-7.75v7.65h7.75v-7.65Z"/>
                  <path d="M490.53,34.14h12.91v5.1h-18.08v-17.86h18.08v11.48h-12.91v1.28ZM490.53,26.48v1.28h7.75v-1.28h-7.75Z"/>
                  <path d="M401.69,28.18l-4.8,4.21,3.09,8.29c-2.05-.48-3.93-1.52-5.46-3.02-2.18-2.15-3.38-5.01-3.38-8.06,0-2.44.77-4.75,2.19-6.69.36-.48.75-.94,1.19-1.37,1.09-1.08,2.36-1.91,3.74-2.48l-2.07-5.79c-1.91.74-3.67,1.8-5.19,3.12-3.72,3.21-6.08,7.94-6.08,13.21,0,9.59,7.79,17.37,17.45,17.53.1,0,.2,0,.3,0,2,0,3.93-.33,5.72-.93l-2.15-5.76-4.57-12.26Z"/>
                  <path d="M420.43,29.6c0-9.44-7.56-17.14-17.02-17.52-.24,0-.48-.02-.73-.02-1.86,0-3.65.28-5.34.81l2.14,5.77c1.03-.29,2.1-.44,3.2-.44s2.14.15,3.16.43c1.87.52,3.59,1.51,5,2.91,2.18,2.15,3.38,5.01,3.38,8.06,0,2.25-.65,4.4-1.88,6.23l-4.72-12.75-4.8,4.21,4.69,12.65,2.14,5.77,1.17,3.16,4.8-4.21-.84-2.26c3.47-3.2,5.65-7.76,5.65-12.82h0Z"/>
                </g>
              </g>
            </g>
          </g>
          <g>
            <path class="cls-24" d="M363.69,414.77c-3.38-5.4-8.12-10.06-14.05-13.42l-2.57-1.45c-19.04-10.78-43.22-4.08-54,14.96l-.85,1.51,21.6,12.23,49.93,28.26.85-1.51c7.42-13.11,6.56-28.65-.91-40.58Z"/>
            <path class="cls-36" d="M360.77,453.39c6.64-11.74,5.87-25.65-.82-36.33-.19-.31-.39-.61-.59-.91-2.98-4.45-7.01-8.29-11.99-11.11l-2.3-1.3c-17.05-9.65-38.7-3.65-48.35,13.4l-.76,1.35,18.07,10.23,1.27.72,44.71,25.31.76-1.35Z"/>
            <path class="cls-16" d="M363.69,414.77c-3.38-5.4-8.12-10.06-14.05-13.42l-2.57-1.45c-19.04-10.78-43.22-4.08-54,14.96l-.85,1.51,21.6,12.23,49.93,28.26.85-1.51c7.42-13.11,6.56-28.65-.91-40.58Z"/>
            <path class="cls-24" d="M292.27,458.45c3.38,5.4,8.12,10.06,14.05,13.42l2.57,1.45c19.04,10.78,43.22,4.08,54-14.96l.85-1.51-21.6-12.23-49.93-28.26-.85,1.51c-7.42,13.11-6.56,28.65.91,40.58Z"/>
            <path class="cls-38" d="M295.96,418.48l-.76,1.35c-6.64,11.74-5.87,25.65.82,36.33.19.31.39.61.59.91,2.98,4.45,7.01,8.29,11.99,11.11l2.3,1.3c17.05,9.65,38.7,3.65,48.35-13.4l.76-1.35-18.07-10.23-1.27-.72-44.71-25.31Z"/>
            <path class="cls-16" d="M292.27,458.45c3.38,5.4,8.12,10.06,14.05,13.42l2.57,1.45c19.04,10.78,43.22,4.08,54-14.96l.85-1.51-21.6-12.23-49.93-28.26-.85,1.51c-7.42,13.11-6.56,28.65.91,40.58Z"/>
            <ellipse class="cls-24" cx="325.89" cy="409.24" rx="7.95" ry="4.09" transform="translate(-83.13 83.07) rotate(-12.9)"/>
            <ellipse class="cls-24" cx="328.38" cy="417.5" rx="2.18" ry="1.12" transform="translate(-84.91 83.84) rotate(-12.9)"/>
            <g>
              <path class="cls-38" d="M361.27,461c-25.63-9.71-49.62-23.28-71.15-40.24,1.3-2.37,2.62-4.73,3.94-7.08,21.44,17.06,45.42,30.64,71.08,40.24-1.28,2.37-2.57,4.73-3.88,7.09Z"/>
              <path class="cls-21" d="M361.27,461c-25.63-9.71-49.62-23.28-71.15-40.24,1.3-2.37,2.62-4.73,3.94-7.08,21.44,17.06,45.42,30.64,71.08,40.24-1.28,2.37-2.57,4.73-3.88,7.09Z"/>
            </g>
            <path class="cls-29" d="M350.3,471.88s33.77-23.54,12.88-57.89c-20.26,44.5-68.67,47.68-68.67,47.68,0,0,28.16,26.33,55.78,10.21Z"/>
          </g>
          <g>
            <path class="cls-24" d="M429.85,313.15c-3.38-5.4-8.12-10.06-14.05-13.42l-2.57-1.45c-19.04-10.78-43.22-4.08-54,14.96l-.85,1.51,21.6,12.23,49.93,28.26.85-1.51c7.42-13.11,6.56-28.65-.91-40.58Z"/>
            <path class="cls-36" d="M426.93,351.77c6.64-11.74,5.87-25.65-.82-36.33-.19-.31-.39-.61-.59-.91-2.98-4.45-7.01-8.29-11.99-11.11l-2.3-1.3c-17.05-9.65-38.7-3.65-48.35,13.4l-.76,1.35,18.07,10.23,1.27.72,44.71,25.31.76-1.35Z"/>
            <path class="cls-16" d="M429.85,313.15c-3.38-5.4-8.12-10.06-14.05-13.42l-2.57-1.45c-19.04-10.78-43.22-4.08-54,14.96l-.85,1.51,21.6,12.23,49.93,28.26.85-1.51c7.42-13.11,6.56-28.65-.91-40.58Z"/>
            <path class="cls-24" d="M358.43,356.83c3.38,5.4,8.12,10.06,14.05,13.42l2.57,1.45c19.04,10.78,43.22,4.08,54-14.96l.85-1.51-21.6-12.23-49.93-28.26-.85,1.51c-7.42,13.11-6.56,28.65.91,40.58Z"/>
            <path class="cls-38" d="M362.12,316.86l-.76,1.35c-6.64,11.74-5.87,25.65.82,36.33.19.31.39.61.59.91,2.98,4.45,7.01,8.29,11.99,11.11l2.3,1.3c17.05,9.65,38.7,3.65,48.35-13.4l.76-1.35-18.07-10.23-1.27-.72-44.71-25.31Z"/>
            <path class="cls-16" d="M358.43,356.83c3.38,5.4,8.12,10.06,14.05,13.42l2.57,1.45c19.04,10.78,43.22,4.08,54-14.96l.85-1.51-21.6-12.23-49.93-28.26-.85,1.51c-7.42,13.11-6.56,28.65.91,40.58Z"/>
            <ellipse class="cls-24" cx="392.05" cy="307.62" rx="7.95" ry="4.09" transform="translate(-58.78 95.28) rotate(-12.9)"/>
            <ellipse class="cls-24" cx="394.54" cy="315.88" rx="2.18" ry="1.12" transform="translate(-60.56 96.04) rotate(-12.9)"/>
            <g>
              <path class="cls-38" d="M427.43,359.38c-25.63-9.71-49.62-23.28-71.15-40.24,1.3-2.37,2.62-4.73,3.94-7.08,21.44,17.06,45.42,30.64,71.08,40.24-1.28,2.37-2.57,4.73-3.88,7.09Z"/>
              <path class="cls-21" d="M427.43,359.38c-25.63-9.71-49.62-23.28-71.15-40.24,1.3-2.37,2.62-4.73,3.94-7.08,21.44,17.06,45.42,30.64,71.08,40.24-1.28,2.37-2.57,4.73-3.88,7.09Z"/>
            </g>
            <path class="cls-29" d="M416.46,370.26s33.77-23.54,12.88-57.89c-20.26,44.5-68.67,47.68-68.67,47.68,0,0,28.16,26.33,55.78,10.21Z"/>
          </g>
          <g>
            <path class="cls-24" d="M283.41,317.33c3.81,5.11,8.9,9.38,15.09,12.25l2.68,1.24c19.85,9.21,43.41.59,52.62-19.26l.73-1.57-22.51-10.45-52.04-24.15-.73,1.57c-6.34,13.66-4.23,29.08,4.17,40.37Z"/>
            <path class="cls-36" d="M283.21,278.6c-5.68,12.23-3.79,26.04,3.74,36.15.22.29.44.58.66.86,3.33,4.2,7.66,7.7,12.85,10.11l2.4,1.11c17.77,8.25,38.87.53,47.11-17.24l.65-1.41-18.83-8.74-1.33-.62-46.6-21.63-.65,1.41Z"/>
            <path class="cls-16" d="M283.41,317.33c3.81,5.11,8.9,9.38,15.09,12.25l2.68,1.24c19.85,9.21,43.41.59,52.62-19.26l.73-1.57-22.51-10.45-52.04-24.15-.73,1.57c-6.34,13.66-4.23,29.08,4.17,40.37Z"/>
            <path class="cls-24" d="M351.08,268.04c-3.81-5.11-8.9-9.38-15.09-12.25l-2.68-1.24c-19.85-9.21-43.41-.59-52.62,19.26l-.73,1.57,22.51,10.45,52.04,24.15.73-1.57c6.34-13.66,4.23-29.08-4.17-40.37Z"/>
            <path class="cls-38" d="M350.62,308.18l.65-1.41c5.68-12.23,3.79-26.04-3.74-36.15-.22-.29-.44-.58-.66-.86-3.33-4.2-7.66-7.7-12.85-10.11l-2.4-1.11c-17.77-8.25-38.87-.53-47.11,17.24l-.65,1.41,18.83,8.74,1.33.62,46.6,21.63Z"/>
            <path class="cls-16" d="M351.08,268.04c-3.81-5.11-8.9-9.38-15.09-12.25l-2.68-1.24c-19.85-9.21-43.41-.59-52.62,19.26l-.73,1.57,22.51,10.45,52.04,24.15.73-1.57c6.34-13.66,4.23-29.08-4.17-40.37Z"/>
            <ellipse class="cls-24" cx="321.53" cy="319.8" rx="7.95" ry="4.09" transform="translate(-81.34 111.59) rotate(-17.51)"/>
            <ellipse class="cls-24" cx="318.38" cy="311.77" rx="2.18" ry="1.12" transform="translate(-79.06 110.27) rotate(-17.51)"/>
            <g>
              <path class="cls-38" d="M282.1,271.06c26.33,7.62,51.33,19.22,74.16,34.39-1.11,2.47-2.23,4.92-3.36,7.38-22.74-15.28-47.74-26.88-74.09-34.39,1.09-2.46,2.19-4.92,3.29-7.38Z"/>
              <path class="cls-21" d="M282.1,271.06c26.33,7.62,51.33,19.22,74.16,34.39-1.11,2.47-2.23,4.92-3.36,7.38-22.74-15.28-47.74-26.88-74.09-34.39,1.09-2.46,2.19-4.92,3.29-7.38Z"/>
            </g>
            <path class="cls-29" d="M292.16,259.33s-31.77,26.18-8.18,58.74c16.61-45.99,64.61-53.05,64.61-53.05,0,0-30.19-23.98-56.42-5.69Z"/>
          </g>
          <g>
            <path class="cls-24" d="M382.09,254.23c-5.34-3.48-11.59-5.73-18.39-6.29l-2.94-.24c-21.81-1.8-40.94,14.43-42.74,36.23l-.14,1.73,24.74,2.04,57.18,4.71.14-1.73c1.24-15.01-6.06-28.76-17.85-36.45Z"/>
            <path class="cls-36" d="M395.64,290.51c1.11-13.44-5.43-25.75-15.98-32.64-.3-.2-.61-.39-.92-.58-4.57-2.79-9.84-4.58-15.55-5.05l-2.64-.22c-19.53-1.61-36.66,12.92-38.27,32.44l-.13,1.55,20.69,1.7,1.46.12,51.2,4.22.13-1.55Z"/>
            <path class="cls-16" d="M382.09,254.23c-5.34-3.48-11.59-5.73-18.39-6.29l-2.94-.24c-21.81-1.8-40.94,14.43-42.74,36.23l-.14,1.73,24.74,2.04,57.18,4.71.14-1.73c1.24-15.01-6.06-28.76-17.85-36.45Z"/>
            <path class="cls-24" d="M335.58,323.84c5.34,3.48,11.59,5.73,18.39,6.29l2.94.24c21.81,1.8,40.94-14.43,42.74-36.23l.14-1.73-24.74-2.04-57.18-4.71-.14,1.73c-1.24,15.01,6.06,28.76,17.85,36.45Z"/>
            <path class="cls-38" d="M322.16,286.01l-.13,1.55c-1.11,13.44,5.43,25.75,15.98,32.64.3.2.61.39.92.58,4.57,2.79,9.84,4.58,15.55,5.05l2.64.22c19.53,1.61,36.66-12.92,38.27-32.44l.13-1.55-20.69-1.7-1.46-.12-51.2-4.22Z"/>
            <path class="cls-16" d="M335.58,323.84c5.34,3.48,11.59,5.73,18.39,6.29l2.94.24c21.81,1.8,40.94-14.43,42.74-36.23l.14-1.73-24.74-2.04-57.18-4.71-.14,1.73c-1.24,15.01,6.06,28.76,17.85,36.45Z"/>
            <ellipse class="cls-24" cx="345.46" cy="265.06" rx="7.95" ry="4.09" transform="translate(-89.97 266.6) rotate(-37.7)"/>
            <ellipse class="cls-24" cx="351.18" cy="271.52" rx="2.18" ry="1.12" transform="translate(-92.72 271.45) rotate(-37.7)"/>
            <g>
              <path class="cls-38" d="M399.28,297.2c-27.34,1.93-54.81-.32-81.47-6.69.19-2.7.39-5.39.61-8.08,26.61,6.49,54.09,8.76,81.4,6.71-.17,2.69-.35,5.37-.55,8.06Z"/>
              <path class="cls-21" d="M399.28,297.2c-27.34,1.93-54.81-.32-81.47-6.69.19-2.7.39-5.39.61-8.08,26.61,6.49,54.09,8.76,81.4,6.71-.17,2.69-.35,5.37-.55,8.06Z"/>
            </g>
            <path class="cls-29" d="M393.89,311.68s20.78-35.54-12.59-57.95c.28,48.9-42.33,72.08-42.33,72.08,0,0,36.61,12.09,54.92-14.13Z"/>
          </g>
          <g>
            <path class="cls-24" d="M526.61,425.99c.62,6.34,2.77,12.63,6.59,18.28l1.65,2.45c12.23,18.14,36.86,22.94,55,10.71l1.44-.97-13.87-20.58-32.07-47.57-1.44.97c-12.49,8.42-18.65,22.71-17.29,36.72Z"/>
            <path class="cls-36" d="M546.45,392.74c-11.18,7.54-16.7,20.33-15.48,32.88.03.36.08.72.12,1.08.68,5.31,2.58,10.55,5.78,15.29l1.48,2.19c10.95,16.25,33,20.54,49.25,9.59l1.29-.87-11.6-17.21-.82-1.21-28.72-42.6-1.29.87Z"/>
            <path class="cls-16" d="M526.61,425.99c.62,6.34,2.77,12.63,6.59,18.28l1.65,2.45c12.23,18.14,36.86,22.94,55,10.71l1.44-.97-13.87-20.58-32.07-47.57-1.44.97c-12.49,8.42-18.65,22.71-17.29,36.72Z"/>
            <path class="cls-24" d="M610.01,418.78c-.62-6.34-2.77-12.63-6.59-18.28l-1.65-2.45c-12.23-18.14-36.86-22.94-55-10.71l-1.44.97,13.87,20.58,32.07,47.57,1.44-.97c12.49-8.42,18.65-22.71,17.29-36.72Z"/>
            <path class="cls-38" d="M588.88,452.9l1.29-.87c11.18-7.54,16.7-20.33,15.48-32.88-.03-.36-.08-.72-.12-1.08-.68-5.31-2.58-10.55-5.78-15.29l-1.48-2.19c-10.95-16.25-33-20.54-49.25-9.58l-1.29.87,11.6,17.21.82,1.21,28.72,42.6Z"/>
            <path class="cls-16" d="M610.01,418.78c-.62-6.34-2.77-12.63-6.59-18.28l-1.65-2.45c-12.23-18.14-36.86-22.94-55-10.71l-1.44.97,13.87,20.58,32.07,47.57,1.44-.97c12.49-8.42,18.65-22.71,17.29-36.72Z"/>
            <ellipse class="cls-24" cx="557.97" cy="447.81" rx="4.09" ry="7.95" transform="translate(-8.52 884.79) rotate(-76.4)"/>
            <ellipse class="cls-24" cx="559.43" cy="439.31" rx="1.12" ry="2.18" transform="translate(.86 879.71) rotate(-76.4)"/>
            <g>
              <path class="cls-38" d="M549.4,385.71c18.6,20.13,34.02,42.98,45.72,67.76-2.22,1.54-4.45,3.06-6.69,4.58-11.57-24.83-26.98-47.69-45.66-67.73,2.2-1.55,4.41-3.08,6.63-4.61Z"/>
              <path class="cls-21" d="M549.4,385.71c18.6,20.13,34.02,42.98,45.72,67.76-2.22,1.54-4.45,3.06-6.69,4.58-11.57-24.83-26.98-47.69-45.66-67.73,2.2-1.55,4.41-3.08,6.63-4.61Z"/>
            </g>
            <path class="cls-29" d="M564.07,380.86s-40.73,6-37.36,46.06c37.99-30.78,82.73-12.03,82.73-12.03,0,0-13.45-36.13-45.36-34.03Z"/>
          </g>
          <g>
            <path class="cls-24" d="M443.79,173.67c-6.36.35-12.73,2.25-18.54,5.82l-2.52,1.55c-18.64,11.47-24.45,35.87-12.98,54.51l.91,1.48,21.14-13.01,48.87-30.07-.91-1.48c-7.89-12.83-21.92-19.58-35.97-18.8Z"/>
            <path class="cls-36" d="M476.19,194.88c-7.07-11.49-19.62-17.53-32.2-16.83-.36.02-.72.05-1.08.08-5.34.46-10.65,2.14-15.52,5.13l-2.25,1.39c-16.69,10.27-21.89,32.12-11.62,48.81l.81,1.32,17.68-10.88,1.25-.77,43.75-26.92-.81-1.32Z"/>
            <path class="cls-16" d="M443.79,173.67c-6.36.35-12.73,2.25-18.54,5.82l-2.52,1.55c-18.64,11.47-24.45,35.87-12.98,54.51l.91,1.48,21.14-13.01,48.87-30.07-.91-1.48c-7.89-12.83-21.92-19.58-35.97-18.8Z"/>
            <path class="cls-24" d="M447.54,257.31c6.36-.35,12.73-2.25,18.54-5.82l2.52-1.55c18.64-11.47,24.45-35.87,12.98-54.51l-.91-1.48-21.14,13.01-48.87,30.07.91,1.48c7.89,12.83,21.92,19.58,35.97,18.8Z"/>
            <path class="cls-38" d="M414.33,234.77l.81,1.32c7.07,11.49,19.62,17.53,32.2,16.83.36-.02.72-.05,1.08-.08,5.34-.46,10.65-2.14,15.52-5.13l2.25-1.39c16.69-10.27,21.89-32.12,11.62-48.81l-.81-1.32-17.68,10.88-1.25.77-43.75,26.92Z"/>
            <path class="cls-16" d="M447.54,257.31c6.36-.35,12.73-2.25,18.54-5.82l2.52-1.55c18.64-11.47,24.45-35.87,12.98-54.51l-.91-1.48-21.14,13.01-48.87,30.07.91,1.48c7.89,12.83,21.92,19.58,35.97,18.8Z"/>
            <ellipse class="cls-24" cx="420.69" cy="204.1" rx="7.95" ry="4.09" transform="translate(108.63 552.32) rotate(-74.01)"/>
            <ellipse class="cls-24" cx="429.13" cy="205.91" rx="2.18" ry="1.12" transform="translate(113 561.74) rotate(-74.01)"/>
            <g>
              <path class="cls-38" d="M483.1,198.12c-20.88,17.75-44.36,32.2-69.6,42.86-1.44-2.29-2.88-4.58-4.3-6.87,25.29-10.53,48.77-24.97,69.57-42.8,1.45,2.27,2.9,4.54,4.33,6.82Z"/>
              <path class="cls-21" d="M483.1,198.12c-20.88,17.75-44.36,32.2-69.6,42.86-1.44-2.29-2.88-4.58-4.3-6.87,25.29-10.53,48.77-24.97,69.57-42.8,1.45,2.27,2.9,4.54,4.33,6.82Z"/>
            </g>
            <path class="cls-29" d="M487.33,212.98s-4.3-40.94-44.46-39.24c29.18,39.24,8.58,83.15,8.58,83.15,0,0,36.66-11.94,35.89-43.91Z"/>
          </g>
          <g>
            <path class="cls-24" d="M381.48,362.39c-6.31.91-12.48,3.37-17.95,7.44l-2.37,1.76c-17.55,13.07-21.17,37.9-8.1,55.44l1.04,1.39,19.9-14.83,46.01-34.28-1.04-1.39c-9-12.08-23.56-17.56-37.49-15.54Z"/>
            <path class="cls-36" d="M415.63,380.65c-8.06-10.81-21.1-15.72-33.57-13.91-.36.05-.71.11-1.07.17-5.27.93-10.42,3.07-15,6.49l-2.12,1.58c-15.71,11.71-18.96,33.93-7.25,49.64l.93,1.24,16.65-12.4,1.17-.87,41.19-30.69-.93-1.24Z"/>
            <path class="cls-16" d="M381.48,362.39c-6.31.91-12.48,3.37-17.95,7.44l-2.37,1.76c-17.55,13.07-21.17,37.9-8.1,55.44l1.04,1.39,19.9-14.83,46.01-34.28-1.04-1.39c-9-12.08-23.56-17.56-37.49-15.54Z"/>
            <path class="cls-24" d="M392.62,445.36c6.31-.91,12.48-3.37,17.95-7.44l2.37-1.76c17.55-13.07,21.17-37.9,8.1-55.44l-1.04-1.39-19.9,14.83-46.01,34.28,1.04,1.39c9,12.08,23.56,17.56,37.49,15.54Z"/>
            <path class="cls-35" d="M357.54,425.86l.93,1.24c8.06,10.81,21.1,15.72,33.57,13.91.36-.05.71-.11,1.07-.17,5.27-.93,10.42-3.07,15-6.49l2.12-1.58c15.71-11.71,18.96-33.93,7.25-49.64l-.93-1.24-16.65,12.4-1.17.87-41.19,30.69Z"/>
            <path class="cls-16" d="M392.62,445.36c6.31-.91,12.48-3.37,17.95-7.44l2.37-1.76c17.55-13.07,21.17-37.9,8.1-55.44l-1.04-1.39-19.9,14.83-46.01,34.28,1.04,1.39c9,12.08,23.56,17.56,37.49,15.54Z"/>
            <ellipse class="cls-24" cx="361.17" cy="394.75" rx="7.95" ry="4.09" transform="translate(-94.76 674.74) rotate(-79.1)"/>
            <ellipse class="cls-24" cx="369.73" cy="395.8" rx="2.18" ry="1.12" transform="translate(-88.85 684.01) rotate(-79.1)"/>
            <g>
              <path class="cls-35" d="M422.8,383.26c-19.23,19.53-41.33,36.01-65.53,48.86-1.64-2.15-3.27-4.3-4.89-6.47,24.26-12.73,46.36-29.2,65.5-48.8,1.65,2.13,3.29,4.26,4.92,6.41Z"/>
              <path class="cls-21" d="M422.8,383.26c-19.23,19.53-41.33,36.01-65.53,48.86-1.64-2.15-3.27-4.3-4.89-6.47,24.26-12.73,46.36-29.2,65.5-48.8,1.65,2.13,3.29,4.26,4.92,6.41Z"/>
            </g>
            <path class="cls-29" d="M428.33,397.69s-7.91-40.4-47.77-35.15c32.54,36.49,15.91,82.07,15.91,82.07,0,0,35.46-15.14,31.85-46.92Z"/>
          </g>
          <g>
            <path class="cls-24" d="M464.18,391.68c.58,6.35,2.7,12.64,6.48,18.32l1.64,2.46c12.13,18.21,36.73,23.15,54.94,11.02l1.44-.96-13.76-20.66-31.8-47.76-1.44.96c-12.54,8.35-18.78,22.6-17.5,36.62Z"/>
            <path class="cls-36" d="M484.21,358.54c-11.22,7.47-16.82,20.24-15.67,32.79.03.36.07.72.12,1.08.65,5.32,2.52,10.56,5.69,15.32l1.47,2.2c10.86,16.31,32.88,20.72,49.19,9.87l1.29-.86-11.51-17.28-.81-1.22-28.47-42.76-1.29.86Z"/>
            <path class="cls-16" d="M464.18,391.68c.58,6.35,2.7,12.64,6.48,18.32l1.64,2.46c12.13,18.21,36.73,23.15,54.94,11.02l1.44-.96-13.76-20.66-31.8-47.76-1.44.96c-12.54,8.35-18.78,22.6-17.5,36.62Z"/>
            <path class="cls-24" d="M547.62,384.94c-.58-6.35-2.7-12.64-6.48-18.32l-1.64-2.46c-12.13-18.21-36.73-23.15-54.94-11.02l-1.44.96,13.76,20.66,31.8,47.76,1.44-.96c12.54-8.35,18.78-22.6,17.5-36.62Z"/>
            <path class="cls-35" d="M526.29,418.94l1.29-.86c11.22-7.47,16.82-20.24,15.67-32.79-.03-.36-.07-.72-.12-1.08-.65-5.32-2.52-10.56-5.69-15.32l-1.47-2.2c-10.86-16.31-32.88-20.72-49.19-9.87l-1.29.86,11.51,17.28.81,1.22,28.47,42.76Z"/>
            <path class="cls-16" d="M547.62,384.94c-.58-6.35-2.7-12.64-6.48-18.32l-1.64-2.46c-12.13-18.21-36.73-23.15-54.94-11.02l-1.44.96,13.76,20.66,31.8,47.76,1.44-.96c12.54-8.35,18.78-22.6,17.5-36.62Z"/>
            <ellipse class="cls-24" cx="495.41" cy="413.67" rx="4.09" ry="7.95" transform="translate(-25.36 794.92) rotate(-76.07)"/>
            <ellipse class="cls-24" cx="496.92" cy="405.18" rx="1.12" ry="2.18" transform="translate(-15.98 789.94) rotate(-76.07)"/>
            <g>
              <path class="cls-35" d="M487.2,351.52c18.49,20.23,33.77,43.17,45.33,68.02-2.23,1.52-4.47,3.04-6.72,4.54-11.43-24.9-26.71-47.84-45.27-67.99,2.21-1.53,4.43-3.06,6.66-4.58Z"/>
              <path class="cls-21" d="M487.2,351.52c18.49,20.23,33.77,43.17,45.33,68.02-2.23,1.52-4.47,3.04-6.72,4.54-11.43-24.9-26.71-47.84-45.27-67.99,2.21-1.53,4.43-3.06,6.66-4.58Z"/>
            </g>
            <path class="cls-29" d="M501.9,346.76s-40.76,5.76-37.62,45.84c38.16-30.57,82.79-11.55,82.79-11.55,0,0-13.25-36.21-45.17-34.29Z"/>
          </g>
          <g>
            <path class="cls-24" d="M599.63,266.82c-1.29-6.24-4.1-12.26-8.49-17.48l-1.9-2.26c-14.09-16.74-39.08-18.9-55.83-4.81l-1.33,1.12,15.98,18.99,36.94,43.9,1.33-1.12c11.53-9.7,16.14-24.56,13.3-38.35Z"/>
            <path class="cls-36" d="M583.42,301.99c10.32-8.68,14.45-21.99,11.91-34.33-.07-.35-.15-.71-.24-1.06-1.24-5.21-3.68-10.22-7.36-14.59l-1.7-2.02c-12.61-14.99-34.99-16.92-49.98-4.31l-1.19,1,13.36,15.89.94,1.12,33.07,39.31,1.19-1Z"/>
            <path class="cls-16" d="M599.63,266.82c-1.29-6.24-4.1-12.26-8.49-17.48l-1.9-2.26c-14.09-16.74-39.08-18.9-55.83-4.81l-1.33,1.12,15.98,18.99,36.94,43.9,1.33-1.12c11.53-9.7,16.14-24.56,13.3-38.35Z"/>
            <path class="cls-24" d="M517.46,282.84c1.29,6.24,4.1,12.26,8.49,17.48l1.9,2.26c14.09,16.74,39.08,18.9,55.83,4.81l1.33-1.12-15.98-18.99-36.94-43.9-1.33,1.12c-11.53,9.7-16.14,24.56-13.3,38.35Z"/>
            <path class="cls-35" d="M534.86,246.67l-1.19,1c-10.32,8.68-14.45,21.99-11.91,34.33.07.35.15.71.24,1.06,1.24,5.21,3.68,10.22,7.36,14.59l1.7,2.02c12.61,14.99,34.99,16.92,49.98,4.31l1.19-1-13.36-15.89-.94-1.12-33.07-39.31Z"/>
            <path class="cls-16" d="M517.46,282.84c1.29,6.24,4.1,12.26,8.49,17.48l1.9,2.26c14.09,16.74,39.08,18.9,55.83,4.81l1.33-1.12-15.98-18.99-36.94-43.9-1.33,1.12c-11.53,9.7-16.14,24.56-13.3,38.35Z"/>
            <ellipse class="cls-24" cx="566.14" cy="248.45" rx="4.09" ry="7.95" transform="translate(245.77 777.23) rotate(-82.48)"/>
            <ellipse class="cls-24" cx="565.59" cy="257.06" rx="1.12" ry="2.18" transform="translate(236.76 784.17) rotate(-82.48)"/>
            <g>
              <path class="cls-35" d="M581.24,309.29c-20.63-18.04-38.38-39.13-52.65-62.53,2.05-1.76,4.1-3.52,6.17-5.26,14.14,23.46,31.89,44.56,52.59,62.5-2.03,1.77-4.06,3.54-6.11,5.29Z"/>
              <path class="cls-21" d="M581.24,309.29c-20.63-18.04-38.38-39.13-52.65-62.53,2.05-1.76,4.1-3.52,6.17-5.26,14.14,23.46,31.89,44.56,52.59,62.5-2.03,1.77-4.06,3.54-6.11,5.29Z"/>
            </g>
            <path class="cls-29" d="M567.16,315.67s39.86-10.28,32.27-49.76c-34.51,34.64-80.98,20.73-80.98,20.73,0,0,17.21,34.5,48.72,29.03Z"/>
          </g>
          <g>
            <path class="cls-24" d="M434.29,256.93c-6.21-1.42-12.86-1.36-19.43.46l-2.85.79c-21.08,5.86-33.42,27.71-27.56,48.79l.46,1.67,23.91-6.65,55.28-15.37-.46-1.67c-4.04-14.51-15.64-24.88-29.36-28.02Z"/>
            <path class="cls-36" d="M459.55,286.28c-3.61-12.99-14.01-22.28-26.29-25.09-.35-.08-.71-.16-1.06-.23-5.25-1.03-10.82-.89-16.33.64l-2.55.71c-18.88,5.25-29.92,24.81-24.67,43.68l.42,1.5,20-5.56,1.41-.39,49.49-13.77-.42-1.5Z"/>
            <path class="cls-16" d="M434.29,256.93c-6.21-1.42-12.86-1.36-19.43.46l-2.85.79c-21.08,5.86-33.42,27.71-27.56,48.79l.46,1.67,23.91-6.65,55.28-15.37-.46-1.67c-4.04-14.51-15.64-24.88-29.36-28.02Z"/>
            <path class="cls-24" d="M414.75,338.34c6.21,1.42,12.86,1.36,19.43-.46l2.85-.79c21.08-5.86,33.42-27.71,27.56-48.79l-.46-1.67-23.91,6.65-55.28,15.37.46,1.67c4.04,14.51,15.64,24.88,29.36,28.02Z"/>
            <path class="cls-35" d="M389.07,307.5l.42,1.5c3.61,12.99,14.01,22.28,26.29,25.09.35.08.71.16,1.06.23,5.25,1.03,10.82.89,16.33-.64l2.55-.71c18.88-5.25,29.92-24.81,24.67-43.68l-.42-1.5-20,5.56-1.41.39-49.49,13.77Z"/>
            <path class="cls-16" d="M414.75,338.34c6.21,1.42,12.86,1.36,19.43-.46l2.85-.79c21.08-5.86,33.42-27.71,27.56-48.79l-.46-1.67-23.91,6.65-55.28,15.37.46,1.67c4.04,14.51,15.64,24.88,29.36,28.02Z"/>
            <ellipse class="cls-24" cx="403.67" cy="279.78" rx="7.95" ry="4.09" transform="translate(-47.67 473.48) rotate(-57.95)"/>
            <ellipse class="cls-24" cx="411.28" cy="283.85" rx="2.18" ry="1.12" transform="translate(-47.55 481.84) rotate(-57.95)"/>
            <g>
              <path class="cls-35" d="M465.29,291.3c-24.98,11.28-51.53,18.67-78.75,21.93-.76-2.6-1.5-5.19-2.23-7.79,27.22-3.12,53.77-10.51,78.69-21.89.77,2.58,1.53,5.16,2.28,7.75Z"/>
              <path class="cls-21" d="M465.29,291.3c-24.98,11.28-51.53,18.67-78.75,21.93-.76-2.6-1.5-5.19-2.23-7.79,27.22-3.12,53.77-10.51,78.69-21.89.77,2.58,1.53,5.16,2.28,7.75Z"/>
            </g>
            <path class="cls-29" d="M465.25,306.75s7.2-40.53-31.87-50.01c17.19,45.78-14.76,82.28-14.76,82.28,0,0,38.53-1.33,46.63-32.27Z"/>
          </g>
          <g>
            <path class="cls-24" d="M387.62,131.7c-6.21-1.42-12.86-1.36-19.43.46l-2.85.79c-21.08,5.86-33.42,27.71-27.56,48.79l.46,1.67,23.91-6.65,55.28-15.37-.46-1.67c-4.04-14.51-15.64-24.88-29.36-28.02Z"/>
            <path class="cls-36" d="M412.88,161.05c-3.61-12.99-14.01-22.28-26.29-25.09-.35-.08-.71-.16-1.06-.23-5.25-1.03-10.82-.89-16.33.64l-2.55.71c-18.88,5.25-29.92,24.81-24.67,43.68l.42,1.5,20-5.56,1.41-.39,49.49-13.77-.42-1.5Z"/>
            <path class="cls-16" d="M387.62,131.7c-6.21-1.42-12.86-1.36-19.43.46l-2.85.79c-21.08,5.86-33.42,27.71-27.56,48.79l.46,1.67,23.91-6.65,55.28-15.37-.46-1.67c-4.04-14.51-15.64-24.88-29.36-28.02Z"/>
            <path class="cls-24" d="M368.08,213.11c6.21,1.42,12.86,1.36,19.43-.46l2.85-.79c21.08-5.86,33.42-27.71,27.56-48.79l-.46-1.67-23.91,6.65-55.28,15.37.46,1.67c4.04,14.51,15.64,24.88,29.36,28.02Z"/>
            <path class="cls-35" d="M342.4,182.27l.42,1.5c3.61,12.99,14.01,22.28,26.29,25.09.35.08.71.16,1.06.23,5.25,1.03,10.82.89,16.33-.64l2.55-.71c18.88-5.25,29.92-24.81,24.67-43.68l-.42-1.5-20,5.56-1.41.39-49.49,13.77Z"/>
            <path class="cls-16" d="M368.08,213.11c6.21,1.42,12.86,1.36,19.43-.46l2.85-.79c21.08-5.86,33.42-27.71,27.56-48.79l-.46-1.67-23.91,6.65-55.28,15.37.46,1.67c4.04,14.51,15.64,24.88,29.36,28.02Z"/>
            <ellipse class="cls-24" cx="357" cy="154.55" rx="7.95" ry="4.09" transform="translate(36.57 375.14) rotate(-57.95)"/>
            <ellipse class="cls-24" cx="364.61" cy="158.62" rx="2.18" ry="1.12" transform="translate(36.69 383.5) rotate(-57.95)"/>
            <g>
              <path class="cls-35" d="M418.62,166.07c-24.98,11.28-51.53,18.67-78.75,21.93-.76-2.6-1.5-5.19-2.23-7.79,27.22-3.12,53.77-10.51,78.69-21.89.77,2.58,1.53,5.16,2.28,7.75Z"/>
              <path class="cls-21" d="M418.62,166.07c-24.98,11.28-51.53,18.67-78.75,21.93-.76-2.6-1.5-5.19-2.23-7.79,27.22-3.12,53.77-10.51,78.69-21.89.77,2.58,1.53,5.16,2.28,7.75Z"/>
            </g>
            <path class="cls-29" d="M418.58,181.52s7.2-40.53-31.87-50.01c17.19,45.78-14.76,82.28-14.76,82.28,0,0,38.53-1.33,46.63-32.27Z"/>
          </g>
          <g>
            <path class="cls-24" d="M419.35,469.43c4.93,4.04,10.9,6.95,17.6,8.24l2.9.56c21.49,4.14,42.26-9.93,46.4-31.41l.33-1.7-24.37-4.69-56.34-10.85-.33,1.7c-2.85,14.79,2.93,29.24,13.81,38.16Z"/>
            <path class="cls-36" d="M409.8,431.9c-2.55,13.24,2.62,26.18,12.37,34.17.28.23.56.45.85.67,4.24,3.27,9.29,5.62,14.91,6.7l2.6.5c19.24,3.71,37.84-8.89,41.54-28.13l.29-1.52-20.39-3.93-1.44-.28-50.44-9.72-.29,1.52Z"/>
            <path class="cls-16" d="M419.35,469.43c4.93,4.04,10.9,6.95,17.6,8.24l2.9.56c21.49,4.14,42.26-9.93,46.4-31.41l.33-1.7-24.37-4.69-56.34-10.85-.33,1.7c-2.85,14.79,2.93,29.24,13.81,38.16Z"/>
            <path class="cls-24" d="M473.1,405.24c-4.93-4.04-10.9-6.95-17.6-8.24l-2.9-.56c-21.49-4.14-42.26,9.93-46.4,31.41l-.33,1.7,24.37,4.69,56.34,10.85.33-1.7c2.85-14.79-2.93-29.24-13.81-38.16Z"/>
            <path class="cls-41" d="M482.36,444.29l.29-1.52c2.55-13.24-2.62-26.18-12.37-34.17-.28-.23-.56-.45-.85-.67-4.24-3.27-9.29-5.62-14.91-6.7l-2.6-.5c-19.24-3.71-37.84,8.89-41.54,28.13l-.29,1.52,20.39,3.93,1.44.28,50.44,9.72Z"/>
            <path class="cls-16" d="M473.1,405.24c-4.93-4.04-10.9-6.95-17.6-8.24l-2.9-.56c-21.49-4.14-42.26,9.93-46.4,31.41l-.33,1.7,24.37,4.69,56.34,10.85.33-1.7c2.85-14.79-2.93-29.24-13.81-38.16Z"/>
            <ellipse class="cls-24" cx="456.94" cy="462.61" rx="7.95" ry="4.09" transform="translate(-174.4 307.02) rotate(-31.51)"/>
            <ellipse class="cls-24" cx="451.95" cy="455.57" rx="2.18" ry="1.12" transform="translate(-171.46 303.37) rotate(-31.51)"/>
            <g>
              <path class="cls-41" d="M406.9,424.85c27.39,1.03,54.46,6.23,80.27,15.43-.48,2.66-.97,5.32-1.48,7.97-25.76-9.33-52.83-14.54-80.21-15.45.46-2.65.93-5.3,1.41-7.96Z"/>
              <path class="cls-21" d="M406.9,424.85c27.39,1.03,54.46,6.23,80.27,15.43-.48,2.66-.97,5.32-1.48,7.97-25.76-9.33-52.83-14.54-80.21-15.45.46-2.65.93-5.3,1.41-7.96Z"/>
            </g>
            <path class="cls-29" d="M413.82,411.03s-24.49,33.09,6.26,58.97c5-48.64,49.86-67.1,49.86-67.1,0,0-35.1-15.97-56.12,8.12Z"/>
          </g>
          <g>
            <path class="cls-24" d="M349.91,328.38c-4.76-4.23-10.62-7.38-17.26-8.93l-2.88-.67c-21.31-4.99-42.62,8.23-47.62,29.54l-.4,1.69,24.17,5.66,55.86,13.09.4-1.69c3.44-14.66-1.76-29.34-12.28-38.68Z"/>
            <path class="cls-36" d="M357.96,366.26c3.08-13.13-1.57-26.27-10.99-34.64-.27-.24-.54-.48-.82-.71-4.11-3.43-9.06-5.98-14.63-7.29l-2.57-.6c-19.08-4.47-38.16,7.37-42.63,26.45l-.35,1.51,20.21,4.74,1.43.33,50.02,11.72.35-1.51Z"/>
            <path class="cls-16" d="M349.91,328.38c-4.76-4.23-10.62-7.38-17.26-8.93l-2.88-.67c-21.31-4.99-42.62,8.23-47.62,29.54l-.4,1.69,24.17,5.66,55.86,13.09.4-1.69c3.44-14.66-1.76-29.34-12.28-38.68Z"/>
            <path class="cls-24" d="M293.65,390.37c4.76,4.23,10.62,7.38,17.26,8.93l2.88.67c21.31,4.99,42.62-8.23,47.62-29.54l.4-1.69-24.17-5.66-55.86-13.09-.4,1.69c-3.44,14.66,1.76,29.34,12.28,38.68Z"/>
            <path class="cls-41" d="M285.96,350.98l-.35,1.51c-3.08,13.13,1.57,26.27,10.99,34.64.27.24.54.48.82.71,4.11,3.43,9.06,5.98,14.63,7.29l2.57.6c19.08,4.47,38.16-7.37,42.63-26.45l.35-1.51-20.21-4.74-1.43-.33-50.02-11.72Z"/>
            <path class="cls-16" d="M293.65,390.37c4.76,4.23,10.62,7.38,17.26,8.93l2.88.67c21.31,4.99,42.62-8.23,47.62-29.54l.4-1.69-24.17-5.66-55.86-13.09-.4,1.69c-3.44,14.66,1.76,29.34,12.28,38.68Z"/>
            <ellipse class="cls-24" cx="312.09" cy="333.7" rx="7.95" ry="4.09" transform="translate(-123.19 194.83) rotate(-29.22)"/>
            <ellipse class="cls-24" cx="316.8" cy="340.92" rx="2.18" ry="1.12" transform="translate(-126.12 198.05) rotate(-29.22)"/>
            <g>
              <path class="cls-41" d="M360.58,373.42c-27.32-2.12-54.17-8.4-79.59-18.62.59-2.64,1.18-5.27,1.79-7.9,25.37,10.35,52.2,16.63,79.53,18.63-.56,2.63-1.14,5.26-1.73,7.89Z"/>
              <path class="cls-21" d="M360.58,373.42c-27.32-2.12-54.17-8.4-79.59-18.62.59-2.64,1.18-5.27,1.79-7.9,25.37,10.35,52.2,16.63,79.53,18.63-.56,2.63-1.14,5.26-1.73,7.89Z"/>
            </g>
            <path class="cls-29" d="M353.12,386.95s25.8-32.08-3.91-59.18c-6.93,48.4-52.5,65.05-52.5,65.05,0,0,34.43,17.35,56.4-5.88Z"/>
          </g>
          <g>
            <path class="cls-24" d="M465.76,113.53c-4.76-4.23-10.62-7.38-17.26-8.93l-2.88-.67c-21.31-4.99-42.62,8.23-47.62,29.54l-.4,1.69,24.17,5.66,55.86,13.09.4-1.69c3.44-14.66-1.76-29.34-12.28-38.68Z"/>
            <path class="cls-36" d="M473.81,151.41c3.08-13.13-1.57-26.27-10.99-34.64-.27-.24-.54-.48-.82-.71-4.11-3.43-9.06-5.98-14.63-7.29l-2.57-.6c-19.08-4.47-38.16,7.37-42.63,26.45l-.35,1.51,20.21,4.74,1.43.33,50.02,11.72.35-1.51Z"/>
            <path class="cls-16" d="M465.76,113.53c-4.76-4.23-10.62-7.38-17.26-8.93l-2.88-.67c-21.31-4.99-42.62,8.23-47.62,29.54l-.4,1.69,24.17,5.66,55.86,13.09.4-1.69c3.44-14.66-1.76-29.34-12.28-38.68Z"/>
            <path class="cls-24" d="M409.5,175.52c4.76,4.23,10.62,7.38,17.26,8.93l2.88.67c21.31,4.99,42.62-8.23,47.62-29.54l.4-1.69-24.17-5.66-55.86-13.09-.4,1.69c-3.44,14.66,1.76,29.34,12.28,38.68Z"/>
            <path class="cls-41" d="M401.8,136.13l-.35,1.51c-3.08,13.13,1.57,26.27,10.99,34.64.27.24.54.48.82.71,4.11,3.43,9.06,5.98,14.63,7.29l2.57.6c19.08,4.47,38.16-7.37,42.63-26.45l.35-1.51-20.21-4.74-1.43-.33-50.02-11.72Z"/>
            <path class="cls-16" d="M409.5,175.52c4.76,4.23,10.62,7.38,17.26,8.93l2.88.67c21.31,4.99,42.62-8.23,47.62-29.54l.4-1.69-24.17-5.66-55.86-13.09-.4,1.69c-3.44,14.66,1.76,29.34,12.28,38.68Z"/>
            <ellipse class="cls-24" cx="427.93" cy="118.85" rx="7.95" ry="4.09" transform="translate(-3.56 224.05) rotate(-29.22)"/>
            <ellipse class="cls-24" cx="432.64" cy="126.07" rx="2.18" ry="1.12" transform="translate(-6.49 227.26) rotate(-29.22)"/>
            <g>
              <path class="cls-41" d="M476.43,158.57c-27.32-2.12-54.17-8.4-79.59-18.62.59-2.64,1.18-5.27,1.79-7.9,25.37,10.35,52.2,16.63,79.53,18.63-.56,2.63-1.14,5.26-1.73,7.89Z"/>
              <path class="cls-21" d="M476.43,158.57c-27.32-2.12-54.17-8.4-79.59-18.62.59-2.64,1.18-5.27,1.79-7.9,25.37,10.35,52.2,16.63,79.53,18.63-.56,2.63-1.14,5.26-1.73,7.89Z"/>
            </g>
            <path class="cls-29" d="M468.96,172.1s25.8-32.08-3.91-59.18c-6.93,48.4-52.5,65.05-52.5,65.05,0,0,34.43,17.35,56.4-5.88Z"/>
          </g>
          <g>
            <path class="cls-24" d="M595.87,326.43c-3-5.62-7.4-10.6-13.09-14.36l-2.46-1.63c-18.25-12.07-42.83-7.05-54.9,11.2l-.96,1.45,20.71,13.69,47.86,31.64.96-1.45c8.31-12.56,8.52-28.13,1.89-40.54Z"/>
            <path class="cls-36" d="M590.29,364.75c7.44-11.25,7.63-25.18,1.69-36.3-.17-.32-.35-.64-.53-.95-2.67-4.64-6.43-8.75-11.2-11.91l-2.21-1.46c-16.34-10.81-38.35-6.32-49.16,10.03l-.86,1.29,17.32,11.45,1.22.81,42.85,28.33.86-1.29Z"/>
            <path class="cls-16" d="M595.87,326.43c-3-5.62-7.4-10.6-13.09-14.36l-2.46-1.63c-18.25-12.07-42.83-7.05-54.9,11.2l-.96,1.45,20.71,13.69,47.86,31.64.96-1.45c8.31-12.56,8.52-28.13,1.89-40.54Z"/>
            <path class="cls-24" d="M521.61,365.08c3,5.62,7.4,10.6,13.09,14.36l2.46,1.63c18.25,12.07,42.83,7.05,54.9-11.2l.96-1.45-20.71-13.69-47.86-31.64-.96,1.45c-8.31,12.56-8.52,28.13-1.89,40.54Z"/>
            <path class="cls-41" d="M528.04,325.46l-.86,1.29c-7.44,11.25-7.63,25.18-1.69,36.3.17.32.35.64.53.95,2.67,4.64,6.43,8.75,11.2,11.91l2.21,1.46c16.34,10.81,38.35,6.32,49.16-10.03l.86-1.29-17.32-11.45-1.22-.81-42.85-28.33Z"/>
            <path class="cls-16" d="M521.61,365.08c3,5.62,7.4,10.6,13.09,14.36l2.46,1.63c18.25,12.07,42.83,7.05,54.9-11.2l.96-1.45-20.71-13.69-47.86-31.64-.96,1.45c-8.31,12.56-8.52,28.13-1.89,40.54Z"/>
            <ellipse class="cls-24" cx="558.55" cy="318.31" rx="7.95" ry="4.09" transform="translate(-42.68 90.68) rotate(-8.94)"/>
            <ellipse class="cls-24" cx="560.46" cy="326.72" rx="2.18" ry="1.12" transform="translate(-43.97 91.08) rotate(-8.94)"/>
            <g>
              <path class="cls-41" d="M590.27,372.38c-24.9-11.46-47.9-26.65-68.2-45.06,1.46-2.27,2.94-4.54,4.42-6.79,20.21,18.5,43.2,33.7,68.14,45.05-1.44,2.27-2.89,4.54-4.36,6.8Z"/>
              <path class="cls-21" d="M590.27,372.38c-24.9-11.46-47.9-26.65-68.2-45.06,1.46-2.27,2.94-4.54,4.42-6.79,20.21,18.5,43.2,33.7,68.14,45.05-1.44,2.27-2.89,4.54-4.36,6.8Z"/>
            </g>
            <path class="cls-29" d="M578.57,382.48s35.32-21.15,16.85-56.86c-23.28,43-71.79,42.82-71.79,42.82,0,0,26.28,28.21,54.94,14.04Z"/>
          </g>
          <g>
            <path class="cls-24" d="M333.48,110.02c-6.37-.12-12.86,1.3-18.92,4.44l-2.62,1.36c-19.43,10.06-27.03,33.97-16.97,53.4l.8,1.54,22.04-11.41,50.95-26.38-.8-1.54c-6.92-13.38-20.41-21.14-34.48-21.41Z"/>
            <path class="cls-36" d="M364.23,133.57c-6.2-11.98-18.27-18.93-30.87-19.17-.36,0-.72,0-1.08,0-5.35.06-10.78,1.35-15.86,3.98l-2.35,1.22c-17.4,9.01-24.2,30.41-15.19,47.81l.71,1.38,18.44-9.54,1.3-.67,45.62-23.62-.71-1.38Z"/>
            <path class="cls-16" d="M333.48,110.02c-6.37-.12-12.86,1.3-18.92,4.44l-2.62,1.36c-19.43,10.06-27.03,33.97-16.97,53.4l.8,1.54,22.04-11.41,50.95-26.38-.8-1.54c-6.92-13.38-20.41-21.14-34.48-21.41Z"/>
            <path class="cls-24" d="M331.04,193.7c6.37.12,12.86-1.3,18.92-4.44l2.62-1.36c19.43-10.06,27.03-33.97,16.97-53.4l-.8-1.54-22.04,11.41-50.95,26.38.8,1.54c6.92,13.38,20.41,21.14,34.48,21.41Z"/>
            <path class="cls-41" d="M299.58,168.78l.71,1.38c6.2,11.98,18.27,18.93,30.87,19.17.36,0,.72,0,1.08,0,5.35-.06,10.78-1.35,15.86-3.98l2.35-1.22c17.4-9.01,24.2-30.41,15.19-47.81l-.71-1.38-18.44,9.54-1.3.67-45.62,23.62Z"/>
            <path class="cls-16" d="M331.04,193.7c6.37.12,12.86-1.3,18.92-4.44l2.62-1.36c19.43-10.06,27.03-33.97,16.97-53.4l-.8-1.54-22.04,11.41-50.95,26.38.8,1.54c6.92,13.38,20.41,21.14,34.48,21.41Z"/>
            <ellipse class="cls-24" cx="308.2" cy="138.66" rx="7.95" ry="4.09" transform="translate(71.57 379.94) rotate(-69.78)"/>
            <ellipse class="cls-24" cx="316.47" cy="141.08" rx="2.18" ry="1.12" transform="translate(74.7 389.3) rotate(-69.78)"/>
            <g>
              <path class="cls-41" d="M370.87,137.3c-22.14,16.16-46.61,28.84-72.58,37.6-1.27-2.39-2.53-4.78-3.78-7.17,26-8.63,50.48-21.31,72.54-37.55,1.28,2.37,2.56,4.74,3.82,7.12Z"/>
              <path class="cls-21" d="M370.87,137.3c-22.14,16.16-46.61,28.84-72.58,37.6-1.27-2.39-2.53-4.78-3.78-7.17,26-8.63,50.48-21.31,72.54-37.55,1.28,2.37,2.56,4.74,3.82,7.12Z"/>
            </g>
            <path class="cls-29" d="M373.99,152.44s-1.26-41.15-41.45-42.42c26.2,41.28,2.41,83.56,2.41,83.56,0,0,37.44-9.2,39.03-41.14Z"/>
          </g>
          <g>
            <path class="cls-24" d="M431.16,215.12c-3-5.62-7.4-10.6-13.09-14.36l-2.46-1.63c-18.25-12.07-42.83-7.05-54.9,11.2l-.96,1.45,20.71,13.69,47.86,31.64.96-1.45c8.31-12.56,8.52-28.13,1.89-40.54Z"/>
            <path class="cls-36" d="M425.58,253.44c7.44-11.25,7.63-25.18,1.69-36.3-.17-.32-.35-.64-.53-.95-2.67-4.64-6.43-8.75-11.2-11.91l-2.21-1.46c-16.34-10.81-38.35-6.32-49.16,10.03l-.86,1.29,17.32,11.45,1.22.81,42.85,28.33.86-1.29Z"/>
            <path class="cls-16" d="M431.16,215.12c-3-5.62-7.4-10.6-13.09-14.36l-2.46-1.63c-18.25-12.07-42.83-7.05-54.9,11.2l-.96,1.45,20.71,13.69,47.86,31.64.96-1.45c8.31-12.56,8.52-28.13,1.89-40.54Z"/>
            <path class="cls-24" d="M356.89,253.76c3,5.62,7.4,10.6,13.09,14.36l2.46,1.63c18.25,12.07,42.83,7.05,54.9-11.2l.96-1.45-20.71-13.69-47.86-31.64-.96,1.45c-8.31,12.56-8.52,28.13-1.89,40.54Z"/>
            <path class="cls-41" d="M363.33,214.15l-.86,1.29c-7.44,11.25-7.63,25.18-1.69,36.3.17.32.35.64.53.95,2.67,4.64,6.43,8.75,11.2,11.91l2.21,1.46c16.34,10.81,38.35,6.32,49.16-10.03l.86-1.29-17.32-11.45-1.22-.81-42.85-28.33Z"/>
            <path class="cls-16" d="M356.89,253.76c3,5.62,7.4,10.6,13.09,14.36l2.46,1.63c18.25,12.07,42.83,7.05,54.9-11.2l.96-1.45-20.71-13.69-47.86-31.64-.96,1.45c-8.31,12.56-8.52,28.13-1.89,40.54Z"/>
            <ellipse class="cls-24" cx="393.83" cy="206.99" rx="7.95" ry="4.09" transform="translate(-27.39 63.72) rotate(-8.94)"/>
            <ellipse class="cls-24" cx="395.74" cy="215.41" rx="2.18" ry="1.12" transform="translate(-28.67 64.12) rotate(-8.94)"/>
            <g>
              <path class="cls-41" d="M425.55,261.07c-24.9-11.46-47.9-26.65-68.2-45.06,1.46-2.27,2.94-4.54,4.42-6.79,20.21,18.5,43.2,33.7,68.14,45.05-1.44,2.27-2.89,4.54-4.36,6.8Z"/>
              <path class="cls-21" d="M425.55,261.07c-24.9-11.46-47.9-26.65-68.2-45.06,1.46-2.27,2.94-4.54,4.42-6.79,20.21,18.5,43.2,33.7,68.14,45.05-1.44,2.27-2.89,4.54-4.36,6.8Z"/>
            </g>
            <path class="cls-29" d="M413.86,271.17s35.32-21.15,16.85-56.86c-23.28,43-71.79,42.82-71.79,42.82,0,0,26.28,28.21,54.94,14.04Z"/>
          </g>
          <g>
            <path class="cls-24" d="M595.88,124.93c-3-5.62-7.4-10.6-13.09-14.36l-2.46-1.63c-18.25-12.07-42.83-7.05-54.9,11.2l-.96,1.45,20.71,13.69,47.86,31.64.96-1.45c8.31-12.56,8.52-28.13,1.89-40.54Z"/>
            <path class="cls-36" d="M590.3,163.26c7.44-11.25,7.63-25.18,1.69-36.3-.17-.32-.35-.64-.53-.95-2.67-4.64-6.43-8.75-11.2-11.91l-2.21-1.46c-16.34-10.81-38.35-6.32-49.16,10.03l-.86,1.29,17.32,11.45,1.22.81,42.85,28.33.86-1.29Z"/>
            <path class="cls-16" d="M595.88,124.93c-3-5.62-7.4-10.6-13.09-14.36l-2.46-1.63c-18.25-12.07-42.83-7.05-54.9,11.2l-.96,1.45,20.71,13.69,47.86,31.64.96-1.45c8.31-12.56,8.52-28.13,1.89-40.54Z"/>
            <path class="cls-24" d="M521.62,163.58c3,5.62,7.4,10.6,13.09,14.36l2.46,1.63c18.25,12.07,42.83,7.05,54.9-11.2l.96-1.45-20.71-13.69-47.86-31.64-.96,1.45c-8.31,12.56-8.52,28.13-1.89,40.54Z"/>
            <path class="cls-41" d="M528.05,123.96l-.86,1.29c-7.44,11.25-7.63,25.18-1.69,36.3.17.32.35.64.53.95,2.67,4.64,6.43,8.75,11.2,11.91l2.21,1.46c16.34,10.81,38.35,6.32,49.16-10.03l.86-1.29-17.32-11.45-1.22-.81-42.85-28.33Z"/>
            <path class="cls-16" d="M521.62,163.58c3,5.62,7.4,10.6,13.09,14.36l2.46,1.63c18.25,12.07,42.83,7.05,54.9-11.2l.96-1.45-20.71-13.69-47.86-31.64-.96,1.45c-8.31,12.56-8.52,28.13-1.89,40.54Z"/>
            <ellipse class="cls-24" cx="558.55" cy="116.81" rx="7.95" ry="4.09" transform="translate(-11.37 88.23) rotate(-8.94)"/>
            <ellipse class="cls-24" cx="560.47" cy="125.22" rx="2.18" ry="1.12" transform="translate(-12.65 88.63) rotate(-8.94)"/>
            <g>
              <path class="cls-41" d="M590.27,170.88c-24.9-11.46-47.9-26.65-68.2-45.06,1.46-2.27,2.94-4.54,4.42-6.79,20.21,18.5,43.2,33.7,68.14,45.05-1.44,2.27-2.89,4.54-4.36,6.8Z"/>
              <path class="cls-21" d="M590.27,170.88c-24.9-11.46-47.9-26.65-68.2-45.06,1.46-2.27,2.94-4.54,4.42-6.79,20.21,18.5,43.2,33.7,68.14,45.05-1.44,2.27-2.89,4.54-4.36,6.8Z"/>
            </g>
            <path class="cls-29" d="M578.58,180.98s35.32-21.15,16.85-56.86c-23.28,43-71.79,42.82-71.79,42.82,0,0,26.28,28.21,54.94,14.04Z"/>
          </g>
          <g>
            <path class="cls-24" d="M558.45,165.29c-6.27,1.13-12.36,3.8-17.68,8.06l-2.31,1.85c-17.08,13.67-19.85,38.61-6.18,55.69l1.08,1.35,19.38-15.51,44.8-35.85-1.08-1.35c-9.41-11.76-24.16-16.73-38.01-14.23Z"/>
            <path class="cls-36" d="M593.22,182.35c-8.43-10.53-21.63-14.98-34.03-12.74-.36.06-.71.13-1.06.21-5.24,1.11-10.3,3.43-14.77,7.01l-2.06,1.65c-15.3,12.24-17.77,34.57-5.53,49.86l.97,1.21,16.21-12.97,1.14-.91,40.11-32.1-.97-1.21Z"/>
            <path class="cls-16" d="M558.45,165.29c-6.27,1.13-12.36,3.8-17.68,8.06l-2.31,1.85c-17.08,13.67-19.85,38.61-6.18,55.69l1.08,1.35,19.38-15.51,44.8-35.85-1.08-1.35c-9.41-11.76-24.16-16.73-38.01-14.23Z"/>
            <path class="cls-24" d="M572.46,247.83c6.27-1.13,12.36-3.8,17.68-8.06l2.31-1.85c17.08-13.67,19.85-38.61,6.18-55.69l-1.08-1.35-19.38,15.51-44.8,35.85,1.08,1.35c9.41,11.76,24.16,16.73,38.01,14.23Z"/>
            <path class="cls-41" d="M536.73,229.55l.97,1.21c8.43,10.53,21.63,14.98,34.03,12.74.36-.06.71-.13,1.06-.21,5.24-1.11,10.3-3.43,14.77-7.01l2.06-1.65c15.3-12.24,17.77-34.57,5.53-49.86l-.97-1.21-16.21,12.97-1.14.91-40.11,32.1Z"/>
            <path class="cls-16" d="M572.46,247.83c6.27-1.13,12.36-3.8,17.68-8.06l2.31-1.85c17.08-13.67,19.85-38.61,6.18-55.69l-1.08-1.35-19.38,15.51-44.8,35.85,1.08,1.35c9.41,11.76,24.16,16.73,38.01,14.23Z"/>
            <ellipse class="cls-24" cx="539.27" cy="198.33" rx="7.95" ry="4.09" transform="translate(259.75 700.34) rotate(-81.08)"/>
            <ellipse class="cls-24" cx="547.87" cy="199.08" rx="2.18" ry="1.12" transform="translate(266.26 709.47) rotate(-81.08)"/>
            <g>
              <path class="cls-41" d="M600.47,184.72c-18.54,20.18-40.06,37.41-63.8,51.1-1.71-2.09-3.42-4.19-5.11-6.29,23.8-13.56,45.32-30.79,63.77-51.04,1.72,2.07,3.43,4.15,5.14,6.23Z"/>
              <path class="cls-21" d="M600.47,184.72c-18.54,20.18-40.06,37.41-63.8,51.1-1.71-2.09-3.42-4.19-5.11-6.29,23.8-13.56,45.32-30.79,63.77-51.04,1.72,2.07,3.43,4.15,5.14,6.23Z"/>
            </g>
            <path class="cls-29" d="M606.5,198.94s-9.3-40.1-48.95-33.47c33.79,35.35,18.74,81.47,18.74,81.47,0,0,34.91-16.36,30.21-47.99Z"/>
          </g>
          <g class="cls-37">
            <path class="cls-23" d="M333.59,706.85c-3.31-5.44-7.99-10.17-13.88-13.6l-2.55-1.49c-18.9-11.02-43.16-4.64-54.19,14.26l-.87,1.5,21.44,12.5,49.56,28.91.87-1.5c7.59-13.01,6.93-28.56-.39-40.58Z"/>
            <path class="cls-23" d="M330.17,745.43c6.79-11.65,6.2-25.57-.35-36.34-.19-.31-.38-.61-.58-.92-2.92-4.49-6.91-8.38-11.85-11.26l-2.28-1.33c-16.92-9.87-38.65-4.15-48.52,12.77l-.78,1.34,17.93,10.46,1.26.74,44.38,25.88.78-1.34Z"/>
            <path class="cls-20" d="M333.59,706.85c-3.31-5.44-7.99-10.17-13.88-13.6l-2.55-1.49c-18.9-11.02-43.16-4.64-54.19,14.26l-.87,1.5,21.44,12.5,49.56,28.91.87-1.5c7.59-13.01,6.93-28.56-.39-40.58Z"/>
            <path class="cls-23" d="M261.62,749.6c3.31,5.44,7.99,10.17,13.88,13.6l2.55,1.49c18.9,11.02,43.16,4.64,54.19-14.26l.87-1.5-21.44-12.5-49.56-28.91-.87,1.5c-7.59,13.01-6.93,28.56.39,40.58Z"/>
            <path class="cls-23" d="M265.82,709.69l-.78,1.34c-6.79,11.65-6.2,25.57.35,36.34.19.31.38.61.58.92,2.92,4.49,6.91,8.38,11.85,11.26l2.28,1.33c16.92,9.87,38.65,4.15,48.52-12.77l.78-1.34-17.93-10.46-1.26-.74-44.38-25.88Z"/>
            <path class="cls-20" d="M261.62,749.6c3.31,5.44,7.99,10.17,13.88,13.6l2.55,1.49c18.9,11.02,43.16,4.64,54.19-14.26l.87-1.5-21.44-12.5-49.56-28.91-.87,1.5c-7.59,13.01-6.93,28.56.39,40.58Z"/>
            <ellipse class="cls-23" cx="295.87" cy="700.84" rx="7.95" ry="4.09" transform="translate(-140.97 78.04) rotate(-12.16)"/>
            <ellipse class="cls-23" cx="298.25" cy="709.13" rx="2.18" ry="1.12" transform="translate(-142.66 78.72) rotate(-12.16)"/>
            <g>
              <path class="cls-23" d="M330.58,753.04c-25.5-10.04-49.32-23.92-70.62-41.16,1.33-2.35,2.68-4.69,4.03-7.03,21.21,17.33,45.02,31.22,70.56,41.15-1.31,2.35-2.64,4.7-3.97,7.04Z"/>
              <path class="cls-18" d="M330.58,753.04c-25.5-10.04-49.32-23.92-70.62-41.16,1.33-2.35,2.68-4.69,4.03-7.03,21.21,17.33,45.02,31.22,70.56,41.15-1.31,2.35-2.64,4.7-3.97,7.04Z"/>
            </g>
            <path class="cls-25" d="M319.47,763.78s34.07-23.1,13.63-57.72c-20.83,44.24-69.28,46.79-69.28,46.79,0,0,27.82,26.69,55.65,10.93Z"/>
          </g>
          <g>
            <path class="cls-24" d="M550.53,415.2c-4.04-4.93-9.33-8.95-15.64-11.53l-2.73-1.12c-20.26-8.28-43.39,1.44-51.66,21.69l-.66,1.6,22.98,9.39,53.11,21.7.66-1.6c5.7-13.94,2.87-29.25-6.05-40.13Z"/>
            <path class="cls-36" d="M552.53,453.87c5.1-12.48,2.57-26.19-5.42-35.93-.23-.28-.46-.56-.7-.83-3.52-4.04-8.01-7.33-13.3-9.5l-2.45-1c-18.14-7.41-38.85,1.29-46.26,19.42l-.59,1.44,19.22,7.85,1.36.55,47.56,19.43.59-1.44Z"/>
            <path class="cls-16" d="M550.53,415.2c-4.04-4.93-9.33-8.95-15.64-11.53l-2.73-1.12c-20.26-8.28-43.39,1.44-51.66,21.69l-.66,1.6,22.98,9.39,53.11,21.7.66-1.6c5.7-13.94,2.87-29.25-6.05-40.13Z"/>
            <path class="cls-24" d="M485.23,467.58c4.04,4.93,9.33,8.95,15.64,11.53l2.73,1.12c20.26,8.28,43.39-1.44,51.66-21.69l.66-1.6-22.98-9.39-53.11-21.7-.66,1.6c-5.7,13.94-2.87,29.25,6.05,40.13Z"/>
            <path class="cls-34" d="M483.82,427.47l-.59,1.44c-5.1,12.48-2.57,26.19,5.42,35.93.23.28.46.56.7.83,3.52,4.04,8.01,7.33,13.3,9.5l2.45,1c18.14,7.41,38.85-1.29,46.26-19.42l.59-1.44-19.22-7.85-1.36-.55-47.56-19.43Z"/>
            <path class="cls-16" d="M485.23,467.58c4.04,4.93,9.33,8.95,15.64,11.53l2.73,1.12c20.26,8.28,43.39-1.44,51.66-21.69l.66-1.6-22.98-9.39-53.11-21.7-.66,1.6c-5.7,13.94-2.87,29.25,6.05,40.13Z"/>
            <ellipse class="cls-24" cx="512.34" cy="414.51" rx="7.95" ry="4.09" transform="translate(-111.57 202.25) rotate(-20.19)"/>
            <ellipse class="cls-24" cx="515.86" cy="422.38" rx="2.18" ry="1.12" transform="translate(-114.07 203.95) rotate(-20.19)"/>
            <g>
              <path class="cls-34" d="M554,461.36c-26.65-6.38-52.17-16.8-75.68-30.89.99-2.51,2-5.02,3.01-7.52,23.43,14.2,48.94,24.63,75.61,30.89-.97,2.51-1.95,5.02-2.95,7.52Z"/>
              <path class="cls-21" d="M554,461.36c-26.65-6.38-52.17-16.8-75.68-30.89.99-2.51,2-5.02,3.01-7.52,23.43,14.2,48.94,24.63,75.61,30.89-.97,2.51-1.95,5.02-2.95,7.52Z"/>
            </g>
            <path class="cls-29" d="M544.5,473.54s30.51-27.63,5.44-59.06c-14.45,46.71-62.06,56-62.06,56,0,0,31.28,22.55,56.63,3.05Z"/>
          </g>
          <g>
            <path class="cls-24" d="M441.35,403.72c6.36.38,12.91-.77,19.09-3.66l2.68-1.25c19.83-9.26,28.4-32.83,19.14-52.66l-.73-1.57-22.49,10.5-51.99,24.27.73,1.57c6.37,13.65,19.53,21.96,33.58,22.8Z"/>
            <path class="cls-36" d="M411.6,378.93c5.7,12.22,17.48,19.66,30.06,20.42.36.02.72.04,1.08.05,5.35.16,10.82-.9,16-3.32l2.4-1.12c17.75-8.29,25.43-29.4,17.14-47.15l-.66-1.41-18.81,8.78-1.33.62-46.55,21.73.66,1.41Z"/>
            <path class="cls-16" d="M441.35,403.72c6.36.38,12.91-.77,19.09-3.66l2.68-1.25c19.83-9.26,28.4-32.83,19.14-52.66l-.73-1.57-22.49,10.5-51.99,24.27.73,1.57c6.37,13.65,19.53,21.96,33.58,22.8Z"/>
            <path class="cls-24" d="M447.22,320.21c-6.36-.38-12.91.77-19.09,3.66l-2.68,1.25c-19.83,9.26-28.4,32.83-19.14,52.66l.73,1.57,22.49-10.5,51.99-24.27-.73-1.57c-6.37-13.65-19.53-21.96-33.58-22.8Z"/>
            <path class="cls-34" d="M477.63,346.4l-.66-1.41c-5.7-12.22-17.48-19.66-30.06-20.42-.36-.02-.72-.04-1.08-.05-5.35-.16-10.82.9-16,3.32l-2.4,1.12c-17.75,8.29-25.43,29.4-17.14,47.15l.66,1.41,18.81-8.78,1.33-.62,46.55-21.73Z"/>
            <path class="cls-16" d="M447.22,320.21c-6.36-.38-12.91.77-19.09,3.66l-2.68,1.25c-19.83,9.26-28.4,32.83-19.14,52.66l.73,1.57,22.49-10.5,51.99-24.27-.73-1.57c-6.37-13.65-19.53-21.96-33.58-22.8Z"/>
            <ellipse class="cls-24" cx="467.79" cy="376.14" rx="7.95" ry="4.09" transform="translate(-59.08 663.76) rotate(-67.43)"/>
            <ellipse class="cls-24" cx="459.62" cy="373.38" rx="2.18" ry="1.12" transform="translate(-61.56 654.51) rotate(-67.43)"/>
            <g>
              <path class="cls-34" d="M405.11,374.93c22.78-15.24,47.76-26.9,74.06-34.6,1.17,2.44,2.33,4.88,3.48,7.32-26.33,7.56-51.31,19.22-74.01,34.55-1.18-2.42-2.36-4.84-3.52-7.27Z"/>
              <path class="cls-21" d="M405.11,374.93c22.78-15.24,47.76-26.9,74.06-34.6,1.17,2.44,2.33,4.88,3.48,7.32-26.33,7.56-51.31,19.22-74.01,34.55-1.18-2.42-2.36-4.84-3.52-7.27Z"/>
            </g>
            <path class="cls-29" d="M402.61,359.68s-.42,41.17,39.67,44.08c-24.49-42.32,1.01-83.59,1.01-83.59,0,0-37.79,7.66-40.68,39.51Z"/>
          </g>
          <g>
            <path class="cls-24" d="M318.47,260.15c6.36.38,12.91-.77,19.09-3.66l2.68-1.25c19.83-9.26,28.4-32.83,19.14-52.66l-.73-1.57-22.49,10.5-51.99,24.27.73,1.57c6.37,13.65,19.53,21.96,33.58,22.8Z"/>
            <path class="cls-36" d="M288.71,235.36c5.7,12.22,17.48,19.66,30.06,20.42.36.02.72.04,1.08.05,5.35.16,10.82-.9,16-3.32l2.4-1.12c17.75-8.29,25.43-29.4,17.14-47.15l-.66-1.41-18.81,8.78-1.33.62-46.55,21.73.66,1.41Z"/>
            <path class="cls-16" d="M318.47,260.15c6.36.38,12.91-.77,19.09-3.66l2.68-1.25c19.83-9.26,28.4-32.83,19.14-52.66l-.73-1.57-22.49,10.5-51.99,24.27.73,1.57c6.37,13.65,19.53,21.96,33.58,22.8Z"/>
            <path class="cls-24" d="M324.33,176.64c-6.36-.38-12.91.77-19.09,3.66l-2.68,1.25c-19.83,9.26-28.4,32.83-19.14,52.66l.73,1.57,22.49-10.5,51.99-24.27-.73-1.57c-6.37-13.65-19.53-21.96-33.58-22.8Z"/>
            <path class="cls-34" d="M354.74,202.83l-.66-1.41c-5.7-12.22-17.48-19.66-30.06-20.42-.36-.02-.72-.04-1.08-.05-5.35-.16-10.82.9-16,3.32l-2.4,1.12c-17.75,8.29-25.43,29.4-17.14,47.15l.66,1.41,18.81-8.78,1.33-.62,46.55-21.73Z"/>
            <path class="cls-16" d="M324.33,176.64c-6.36-.38-12.91.77-19.09,3.66l-2.68,1.25c-19.83,9.26-28.4,32.83-19.14,52.66l.73,1.57,22.49-10.5,51.99-24.27-.73-1.57c-6.37-13.65-19.53-21.96-33.58-22.8Z"/>
            <ellipse class="cls-24" cx="344.9" cy="232.57" rx="7.95" ry="4.09" transform="translate(-2.22 461.81) rotate(-67.43)"/>
            <ellipse class="cls-24" cx="336.73" cy="229.8" rx="2.18" ry="1.12" transform="translate(-4.71 452.56) rotate(-67.43)"/>
            <g>
              <path class="cls-34" d="M282.23,231.35c22.78-15.24,47.76-26.9,74.06-34.6,1.17,2.44,2.33,4.88,3.48,7.32-26.33,7.56-51.31,19.22-74.01,34.55-1.18-2.42-2.36-4.84-3.52-7.27Z"/>
              <path class="cls-21" d="M282.23,231.35c22.78-15.24,47.76-26.9,74.06-34.6,1.17,2.44,2.33,4.88,3.48,7.32-26.33,7.56-51.31,19.22-74.01,34.55-1.18-2.42-2.36-4.84-3.52-7.27Z"/>
            </g>
            <path class="cls-29" d="M279.72,216.11s-.42,41.17,39.67,44.08c-24.49-42.32,1.01-83.59,1.01-83.59,0,0-37.79,7.66-40.68,39.51Z"/>
          </g>
          <g>
            <path class="cls-24" d="M484.94,350.01c6.36.38,12.91-.77,19.09-3.66l2.68-1.25c19.83-9.26,28.4-32.83,19.14-52.66l-.73-1.57-22.49,10.5-51.99,24.27.73,1.57c6.37,13.65,19.53,21.96,33.58,22.8Z"/>
            <path class="cls-36" d="M455.18,325.22c5.7,12.22,17.48,19.66,30.06,20.42.36.02.72.04,1.08.05,5.35.16,10.82-.9,16-3.32l2.4-1.12c17.75-8.29,25.43-29.4,17.14-47.15l-.66-1.41-18.81,8.78-1.33.62-46.55,21.73.66,1.41Z"/>
            <path class="cls-16" d="M484.94,350.01c6.36.38,12.91-.77,19.09-3.66l2.68-1.25c19.83-9.26,28.4-32.83,19.14-52.66l-.73-1.57-22.49,10.5-51.99,24.27.73,1.57c6.37,13.65,19.53,21.96,33.58,22.8Z"/>
            <path class="cls-24" d="M490.8,266.5c-6.36-.38-12.91.77-19.09,3.66l-2.68,1.25c-19.83,9.26-28.4,32.83-19.14,52.66l.73,1.57,22.49-10.5,51.99-24.27-.73-1.57c-6.37-13.65-19.53-21.96-33.58-22.8Z"/>
            <path class="cls-34" d="M521.21,292.69l-.66-1.41c-5.7-12.22-17.48-19.66-30.06-20.42-.36-.02-.72-.04-1.08-.05-5.35-.16-10.82.9-16,3.32l-2.4,1.12c-17.75,8.29-25.43,29.4-17.14,47.15l.66,1.41,18.81-8.78,1.33-.62,46.55-21.73Z"/>
            <path class="cls-16" d="M490.8,266.5c-6.36-.38-12.91.77-19.09,3.66l-2.68,1.25c-19.83,9.26-28.4,32.83-19.14,52.66l.73,1.57,22.49-10.5,51.99-24.27-.73-1.57c-6.37-13.65-19.53-21.96-33.58-22.8Z"/>
            <ellipse class="cls-24" cx="511.37" cy="322.43" rx="7.95" ry="4.09" transform="translate(17.38 670.9) rotate(-67.43)"/>
            <ellipse class="cls-24" cx="503.2" cy="319.66" rx="2.18" ry="1.12" transform="translate(14.9 661.65) rotate(-67.43)"/>
            <g>
              <path class="cls-34" d="M448.7,321.21c22.78-15.24,47.76-26.9,74.06-34.6,1.17,2.44,2.33,4.88,3.48,7.32-26.33,7.56-51.31,19.22-74.01,34.55-1.18-2.42-2.36-4.84-3.52-7.27Z"/>
              <path class="cls-21" d="M448.7,321.21c22.78-15.24,47.76-26.9,74.06-34.6,1.17,2.44,2.33,4.88,3.48,7.32-26.33,7.56-51.31,19.22-74.01,34.55-1.18-2.42-2.36-4.84-3.52-7.27Z"/>
            </g>
            <path class="cls-29" d="M446.2,305.97s-.42,41.17,39.67,44.08c-24.49-42.32,1.01-83.59,1.01-83.59,0,0-37.79,7.66-40.68,39.51Z"/>
          </g>
          <g>
            <path class="cls-24" d="M517.52,133.32c-6.01-2.12-12.62-2.81-19.35-1.74l-2.92.46c-21.61,3.44-36.34,23.74-32.91,45.35l.27,1.71,24.51-3.9,56.66-9.01-.27-1.71c-2.37-14.88-12.72-26.49-26-31.17Z"/>
            <path class="cls-36" d="M539.3,165.34c-2.12-13.32-11.39-23.72-23.28-27.9-.34-.12-.68-.23-1.03-.34-5.1-1.62-10.65-2.11-16.3-1.21l-2.61.42c-19.35,3.08-32.54,21.26-29.46,40.61l.24,1.53,20.5-3.26,1.45-.23,50.73-8.07-.24-1.53Z"/>
            <path class="cls-16" d="M517.52,133.32c-6.01-2.12-12.62-2.81-19.35-1.74l-2.92.46c-21.61,3.44-36.34,23.74-32.91,45.35l.27,1.71,24.51-3.9,56.66-9.01-.27-1.71c-2.37-14.88-12.72-26.49-26-31.17Z"/>
            <path class="cls-24" d="M488.88,211.98c6.01,2.12,12.62,2.81,19.35,1.74l2.92-.46c21.61-3.44,36.34-23.74,32.91-45.35l-.27-1.71-24.51,3.9-56.66,9.01.27,1.71c2.37,14.88,12.72,26.49,26,31.17Z"/>
            <path class="cls-34" d="M466.86,178.43l.24,1.53c2.12,13.32,11.39,23.72,23.28,27.9.34.12.68.23,1.03.34,5.1,1.62,10.65,2.11,16.3,1.21l2.61-.42c19.35-3.08,32.54-21.26,29.46-40.61l-.24-1.53-20.5,3.26-1.45.23-50.73,8.07Z"/>
            <path class="cls-16" d="M488.88,211.98c6.01,2.12,12.62,2.81,19.35,1.74l2.92-.46c21.61-3.44,36.34-23.74,32.91-45.35l-.27-1.71-24.51,3.9-56.66,9.01.27,1.71c2.37,14.88,12.72,26.49,26,31.17Z"/>
            <ellipse class="cls-24" cx="484.51" cy="152.55" rx="7.95" ry="4.09" transform="translate(63.25 436.38) rotate(-51.45)"/>
            <ellipse class="cls-24" cx="491.61" cy="157.46" rx="2.18" ry="1.12" transform="translate(62.08 443.77) rotate(-51.45)"/>
            <g>
              <path class="cls-34" d="M544.43,170.98c-26.1,8.37-53.32,12.71-80.72,12.87-.46-2.66-.9-5.33-1.33-8,27.4-.02,54.62-4.35,80.67-12.83.47,2.65.93,5.3,1.39,7.96Z"/>
              <path class="cls-21" d="M544.43,170.98c-26.1,8.37-53.32,12.71-80.72,12.87-.46-2.66-.9-5.33-1.33-8,27.4-.02,54.62-4.35,80.67-12.83.47,2.65.93,5.3,1.39,7.96Z"/>
            </g>
            <path class="cls-29" d="M542.64,186.32s11.74-39.46-26-53.3c11.89,47.43-23.99,80.08-23.99,80.08,0,0,38.44,3.04,49.99-26.78Z"/>
          </g>
          <g>
            <path class="cls-24" d="M538.23,230.67c-2.77-5.74-6.96-10.89-12.49-14.89l-2.39-1.73c-17.74-12.81-42.51-8.81-55.32,8.93l-1.01,1.41,20.12,14.53,46.52,33.59,1.01-1.41c8.82-12.21,9.67-27.75,3.56-40.43Z"/>
            <path class="cls-36" d="M531.07,268.73c7.89-10.93,8.66-24.85,3.19-36.2-.16-.33-.32-.65-.49-.97-2.47-4.75-6.06-9.01-10.7-12.36l-2.14-1.55c-15.89-11.47-38.06-7.89-49.53,8l-.91,1.26,16.83,12.15,1.19.86,41.65,30.07.91-1.26Z"/>
            <path class="cls-16" d="M538.23,230.67c-2.77-5.74-6.96-10.89-12.49-14.89l-2.39-1.73c-17.74-12.81-42.51-8.81-55.32,8.93l-1.01,1.41,20.12,14.53,46.52,33.59,1.01-1.41c8.82-12.21,9.67-27.75,3.56-40.43Z"/>
            <path class="cls-24" d="M462.44,266.23c2.77,5.74,6.96,10.89,12.49,14.89l2.39,1.73c17.74,12.81,42.51,8.81,55.32-8.93l1.01-1.41-20.12-14.53-46.52-33.59-1.01,1.41c-8.82,12.21-9.67,27.75-3.56,40.43Z"/>
            <path class="cls-38" d="M470.5,226.91l-.91,1.26c-7.89,10.93-8.66,24.85-3.19,36.2.16.33.32.65.49.97,2.47,4.75,6.06,9.01,10.7,12.36l2.14,1.55c15.89,11.47,38.06,7.89,49.53-8l.91-1.26-16.83-12.15-1.19-.86-41.65-30.07Z"/>
            <path class="cls-16" d="M462.44,266.23c2.77,5.74,6.96,10.89,12.49,14.89l2.39,1.73c17.74,12.81,42.51,8.81,55.32-8.93l1.01-1.41-20.12-14.53-46.52-33.59-1.01,1.41c-8.82,12.21-9.67,27.75-3.56,40.43Z"/>
            <ellipse class="cls-24" cx="501.27" cy="221.02" rx="7.95" ry="4.09" transform="translate(-22.03 58.92) rotate(-6.58)"/>
            <ellipse class="cls-24" cx="502.83" cy="229.5" rx="2.18" ry="1.12" transform="translate(-22.99 59.15) rotate(-6.58)"/>
            <g>
              <path class="cls-38" d="M530.73,276.35c-24.4-12.47-46.76-28.6-66.29-47.83,1.56-2.21,3.12-4.41,4.7-6.6,19.43,19.31,41.78,35.45,66.22,47.81-1.53,2.21-3.08,4.42-4.63,6.62Z"/>
              <path class="cls-21" d="M530.73,276.35c-24.4-12.47-46.76-28.6-66.29-47.83,1.56-2.21,3.12-4.41,4.7-6.6,19.43,19.31,41.78,35.45,66.22,47.81-1.53,2.21-3.08,4.42-4.63,6.62Z"/>
            </g>
            <path class="cls-29" d="M518.64,285.96s36.16-19.68,19.17-56.12c-25.03,42-73.49,39.83-73.49,39.83,0,0,25.1,29.27,54.32,16.29Z"/>
          </g>
          <g>
            <g class="cls-11">
              <ellipse class="cls-3" cx="297.25" cy="727.05" rx="223.55" ry="116.65"/>
              <path class="cls-2" d="M436.34,727.05c0,31.04-62.27,56.2-139.09,56.2s-139.09-25.16-139.09-56.2,62.27-56.2,139.09-56.2,139.09,25.16,139.09,56.2Z"/>
              <path class="cls-8" d="M594.5,727.05c0,23.19-133.08,41.99-297.25,41.99S0,750.25,0,727.05s133.08-41.99,297.25-41.99,297.25,18.8,297.25,41.99Z"/>
              <path class="cls-14" d="M594.5,727.05c0,8.38-133.08,15.16-297.25,15.16S0,735.43,0,727.05s133.08-15.16,297.25-15.16,297.25,6.79,297.25,15.16Z"/>
              <path class="cls-7" d="M541.23,727.05c0,18.68-109.24,33.82-243.98,33.82s-243.98-15.14-243.98-33.82,109.24-33.82,243.98-33.82,243.98,15.14,243.98,33.82Z"/>
              <path class="cls-12" d="M541.23,727.05c0,2.66-109.24,4.81-243.98,4.81s-243.98-2.15-243.98-4.81,109.24-4.81,243.98-4.81,243.98,2.15,243.98,4.81Z"/>
            </g>
            <g class="cls-11">
              <ellipse class="cls-13" cx="297.25" cy="727.06" rx="116.65" ry="223.55"/>
              <path class="cls-4" d="M297.25,866.15c-31.04,0-56.2-62.27-56.2-139.09s25.16-139.09,56.2-139.09,56.2,62.27,56.2,139.09-25.16,139.09-56.2,139.09Z"/>
              <path class="cls-10" d="M297.25,1024.3c-23.19,0-41.99-133.08-41.99-297.25s18.8-297.25,41.99-297.25,41.99,133.08,41.99,297.25-18.8,297.25-41.99,297.25Z"/>
              <path class="cls-5" d="M297.25,1024.3c-8.38,0-15.16-133.08-15.16-297.25s6.79-297.25,15.16-297.25,15.16,133.08,15.16,297.25-6.79,297.25-15.16,297.25Z"/>
              <path class="cls-6" d="M297.25,971.04c-18.68,0-33.82-109.24-33.82-243.98s15.14-243.98,33.82-243.98,33.82,109.24,33.82,243.98-15.14,243.98-33.82,243.98Z"/>
              <path class="cls-9" d="M297.25,971.04c-2.66,0-4.81-109.24-4.81-243.98s2.15-243.98,4.81-243.98,4.81,109.24,4.81,243.98-2.15,243.98-4.81,243.98Z"/>
            </g>
          </g>
          <path class="cls-27" d="M387.34,813.16s239.95-70.94,252.58-288.46c0,51.94,0,248.35,0,248.35l13.15.3.88,39.81h-266.61Z"/>
          <g class="cls-27">
            <path class="cls-40" d="M606.34,92.59h-323.98c-4.6,0-8.33,3.73-8.33,8.33v359.33L614.68,119.61v-18.69c0-4.6-3.73-8.33-8.33-8.33Z"/>
            <path class="cls-36" d="M274.04,460.25v18.69c0,4.6,3.73,8.33,8.33,8.33h323.98c4.6,0,8.33-3.73,8.33-8.33V119.61l-340.64,340.64Z"/>
          </g>
          <g class="cls-15">
            <path class="cls-24" d="M559.85,406.62c-.43-.02-.87-.03-1.3-.03-3.25,0-6.45.49-9.53,1.44-.35.11-.68.25-1,.41-.36.07-.71.17-1.05.3-3.4,1.32-6.53,3.2-9.29,5.58-6.93,5.98-10.9,14.63-10.9,23.72,0,8.33,3.25,16.18,9.16,22.1,5.88,5.9,13.72,9.22,22.09,9.36h.1c.14,0,.28,0,.42,0,2.06,0,4.1-.2,6.09-.58.87,1.42,2.27,2.48,3.92,2.9.52.13,1.06.2,1.59.2,1.55,0,3.08-.56,4.27-1.61l6.84-6.01c1.87-1.64,2.62-4.19,1.97-6.56,4.54-5.57,7.08-12.57,7.09-19.79h0c0-16.95-13.39-30.76-30.47-31.44Z"/>
            <g>
              <path class="cls-42" d="M557.14,436.03l-6.84,6.01,4.4,11.82c-2.92-.69-5.6-2.16-7.78-4.31-3.11-3.07-4.82-7.15-4.82-11.48,0-3.47,1.1-6.78,3.12-9.53.51-.69,1.07-1.34,1.69-1.95,1.55-1.53,3.36-2.72,5.34-3.53l-2.95-8.26c-2.73,1.06-5.23,2.57-7.4,4.45-5.31,4.58-8.66,11.31-8.66,18.83,0,13.66,11.1,24.76,24.88,24.99.14,0,.28,0,.42,0,2.86,0,5.6-.47,8.16-1.33l-3.06-8.21-6.51-17.47Z"/>
              <path class="cls-42" d="M583.84,438.05c0-13.46-10.77-24.43-24.26-24.97-.34-.01-.69-.02-1.04-.02-2.65,0-5.21.4-7.61,1.15l3.05,8.23c1.46-.41,3-.63,4.56-.63s3.05.21,4.5.61c2.67.75,5.11,2.15,7.13,4.15,3.11,3.07,4.82,7.15,4.82,11.48,0,3.21-.93,6.27-2.67,8.89l-6.73-18.17-6.84,6.01,6.68,18.04,3.05,8.23,1.67,4.51,6.84-6.01-1.19-3.22c4.95-4.56,8.05-11.06,8.05-18.28h0Z"/>
            </g>
          </g>
          <g class="cls-39">
            <path class="cls-24" d="M426.47,119.41c-1-2.43-3.79-3.6-6.22-2.6l-19.93,8.19c-.23.1-.46.21-.69.36-.26.06-.51.13-.74.23l-9.83,4.04c-1.06-2.3-3.77-3.38-6.14-2.41l-5.7,2.34c-2.37.97-3.54,3.65-2.67,6.03l-2.71,1.11c-2.05.84-3.2,2.96-2.91,5.06-1.27-1.7-3.58-2.4-5.63-1.56l-5.7,2.34c-.23.1-.46.21-.69.36-.26.06-.51.13-.74.23l-19.94,8.19c-2.43,1-3.6,3.79-2.6,6.22l.57,1.38c-6.82-7.76-17.94-10.89-28.28-7.12-2.8,1.02-5.47,2.55-7.74,4.43-.22.18-.42.39-.62.63-.26.16-.5.34-.7.54-2.16,2.05-3.94,4.44-5.28,7.09-3.38,6.66-3.7,14.41-.88,21.28,5.29,12.88,20.24,19.18,33.35,14.05l-.67-1.66h0l.78,1.61.27-.11c1.67-.68,3.27-1.55,4.79-2.59,1.04.93,2.45,1.36,3.85,1.16.39-.06.77-.16,1.13-.31,1.07-.44,1.94-1.25,2.46-2.29l3.38-6.82c.86-1.73.57-3.84-.7-5.28.96-3.02,1.34-6.15,1.16-9.25l1.21,2.95c1,2.43,3.79,3.6,6.22,2.6l5.97-2.45,1.27,1.38c1.34,1.46,3.48,1.94,5.32,1.18l8.06-3.31c1.44-.59,2.5-1.85,2.84-3.38.22-1,.11-2.03-.28-2.94l18.12-7.44c.23-.1.46-.21.69-.36.26-.06.51-.13.74-.23l19.94-8.19c.23-.1.46-.21.69-.36.26-.06.51-.13.74-.23l19.93-8.19c2.43-1,3.6-3.79,2.6-6.22l-2.31-5.63c-.1-.24-.21-.46-.34-.68-.06-.25-.14-.49-.23-.73l-5.2-12.66Z"/>
            <g>
              <path d="M338.05,155.73l19.94-8.19,8.09,19.69-2.83,1.16,3.52,3.82-8.06,3.31-3.52-3.82-9.04,3.71-8.09-19.69ZM346.05,159.02l3.47,8.44,8.54-3.51-3.47-8.44-8.54,3.51Z"/>
              <path d="M359.41,146.96l5.7-2.34,5.78,14.07,8.54-3.51-5.78-14.07,5.7-2.34,8.09,19.69-19.94,8.19-8.09-19.69Z"/>
              <path d="M400.7,130l8.09,19.69-19.94,8.19-9.82-23.91,5.7-2.34,1.73,4.22,14.24-5.85ZM397.32,137.96l-8.54,3.51,3.47,8.44,8.54-3.51-3.47-8.44Z"/>
              <path d="M413.6,141.14l14.24-5.85,2.31,5.63-19.94,8.19-8.09-19.69,19.94-8.19,5.2,12.66-14.24,5.85.58,1.41ZM410.13,132.7l.58,1.41,8.54-3.51-.58-1.41-8.54,3.51Z"/>
              <path class="cls-42" d="M312.95,174.8l-3.38,6.82,7.16,7.74c-2.48.4-5.02.11-7.39-.86-3.38-1.39-6-4-7.37-7.35-1.1-2.69-1.31-5.59-.61-8.36.17-.69.4-1.38.69-2.05.71-1.68,1.74-3.18,3.01-4.43l-4.9-5.45c-1.78,1.69-3.23,3.65-4.31,5.79-2.65,5.23-3.1,11.5-.72,17.31,4.34,10.57,16.45,15.63,27.18,11.42.11-.04.22-.09.33-.13,2.21-.91,4.18-2.14,5.89-3.62l-4.98-5.38-10.59-11.45Z"/>
              <path class="cls-42" d="M334.25,167.89c-4.28-10.41-16.09-15.48-26.7-11.61-.27.1-.54.2-.81.31-2.05.84-3.9,1.97-5.52,3.31l4.97,5.4c1-.79,2.12-1.44,3.33-1.94s2.43-.81,3.67-.96c2.3-.27,4.64.04,6.83.94,3.38,1.39,6,4,7.37,7.35,1.02,2.48,1.27,5.15.75,7.72l-10.98-11.92-3.38,6.82,10.9,11.83,4.97,5.4,2.73,2.96,3.38-6.82-1.94-2.11c2.38-5.1,2.71-11.12.42-16.7h0Z"/>
            </g>
          </g>
        </g>
      </g>
    </g>
  </g>
</svg>