<svg width="162" height="27" viewBox="0 0 162 27" fill="none" xmlns="http://www.w3.org/2000/svg">
<path d="M12.1704 13.0719L9.48447 15.4281L11.7421 21.4824L11.7423 21.4833L11.7426 21.4843L11.7469 21.4959L12.1753 22.6547L10.9735 22.3638L10.9632 22.3613C9.2347 21.9545 7.64867 21.0765 6.3766 19.8221L6.37555 19.8212L6.37463 19.8203L6.33482 19.7807L6.33429 19.7801L6.33377 19.7796C4.52789 17.9755 3.53328 15.5847 3.53328 13.0475C3.53328 11.0059 4.17161 9.06149 5.37922 7.42413C5.68093 7.01488 6.01611 6.62763 6.37542 6.27303C7.13383 5.5246 7.99427 4.91429 8.93985 4.45343L7.76281 1.16211C6.5896 1.68749 5.50312 2.37838 4.52591 3.22162L4.49283 3.25033C3.8044 3.84773 3.177 4.51769 2.62803 5.24137C2.07497 5.97058 1.59875 6.75825 1.21269 7.5824C0.819643 8.42142 0.517411 9.30403 0.314429 10.2059C0.10578 11.1323 -6.10352e-05 12.0885 -6.10352e-05 13.0473C-6.10352e-05 13.9236 0.0885129 14.7993 0.263157 15.6502C0.433319 16.4793 0.68731 17.2953 1.01801 18.0756C1.34292 18.842 1.74519 19.582 2.21389 20.2751C2.67811 20.9618 3.21167 21.6088 3.79966 22.1979C4.38751 22.787 5.03495 23.3235 5.72377 23.7924C6.41878 24.2655 7.16244 24.6741 7.9339 25.0068C8.71907 25.3455 9.54167 25.6091 10.3785 25.7903C11.237 25.9762 12.1215 26.0777 13.0078 26.0922C13.0307 26.0925 13.0538 26.0929 13.0767 26.0932C13.13 26.0942 13.1802 26.095 13.2294 26.095C14.4607 26.095 15.6728 25.9294 16.8418 25.6025L15.4076 21.7554L12.1702 13.0716L12.1704 13.0719Z" fill="#D5B77A"/>
<path d="M22.0783 23.303L22.0767 23.2988L22.0753 23.2947L21.9297 22.8847L22.2502 22.5901L22.2535 22.5871C22.9004 21.9918 23.4892 21.3301 24.0032 20.6205C24.5215 19.9051 24.9671 19.1363 25.3279 18.3353C25.6951 17.5199 25.9774 16.6641 26.167 15.7919C26.3616 14.896 26.4604 13.9727 26.4605 13.0477C26.4605 12.1843 26.3746 11.3212 26.2051 10.4824C26.0398 9.66473 25.793 8.85942 25.4717 8.0886C25.156 7.3316 24.7648 6.59936 24.309 5.91255C23.8576 5.23219 23.3383 4.58963 22.7657 4.00276C22.1935 3.41628 21.5627 2.87997 20.891 2.40871C20.2138 1.93363 19.4883 1.52018 18.7349 1.1798C17.9689 0.833759 17.1654 0.559482 16.3469 0.364737C15.5083 0.165119 14.643 0.0464809 13.7749 0.0119823L13.7059 0.00934885C13.535 0.00316017 13.3798 0 13.231 0C12.1101 0 11.0017 0.137994 9.9267 0.410823L11.1439 3.69345C11.8283 3.54558 12.5282 3.47079 13.2319 3.47079C14.1286 3.47079 14.9819 3.58509 15.8407 3.82026H15.8414L15.842 3.82065L15.8793 3.83092L15.8807 3.83132L15.882 3.83171L15.9164 3.84132L15.9172 3.84159L15.918 3.84185C17.4812 4.28467 18.9225 5.12541 20.0858 6.27347C21.9192 8.08294 22.929 10.4887 22.929 13.048C22.929 14.9256 22.3824 16.739 21.3484 18.2919V18.2921L21.348 18.2924L21.3409 18.3031L20.6227 19.3792L20.1743 18.166L20.1698 18.1539L16.81 9.09103L14.1249 11.4465L17.6347 20.915L19.3092 25.4315L19.8906 27L22.5756 24.6446L22.0799 23.3077L22.0783 23.3035V23.303Z" fill="#D5B77A"/>
<path d="M77.8359 5.90332H88.0053V7.48938H80.0983V12.4342H87.2356V14.0202H80.0983V19.4548H88.2386V21.0409H77.8359V5.90332Z" fill="#D5B77A"/>
<path d="M63.5302 5.90332H68.9415C70.2321 5.90332 71.2584 6.03549 72.0203 6.29984C72.72 6.54863 73.1865 6.85962 73.4198 7.23281C73.6686 7.606 73.793 8.11914 73.793 8.77223V10.8015C73.793 11.4079 73.6219 11.8822 73.2798 12.2242C72.9377 12.5508 72.4168 12.7918 71.7171 12.9473V13.0406C72.5412 13.1805 73.2021 13.4682 73.6997 13.9036C74.2128 14.3234 74.4694 14.8521 74.4694 15.4897V18.032C74.4694 19.1361 74.0573 19.9135 73.2332 20.3645C72.409 20.8154 71.0329 21.0409 69.1048 21.0409H63.5302V5.90332ZM69.0115 12.5275C69.96 12.5275 70.6364 12.3875 71.0407 12.1076C71.4605 11.8122 71.6704 11.3535 71.6704 10.7315V8.95882C71.6704 8.38349 71.4605 7.9792 71.0407 7.74595C70.6208 7.51271 69.9211 7.39608 68.9415 7.39608H65.7927V12.5275H69.0115ZM69.1048 19.4781C70.2399 19.4781 71.0407 19.3615 71.5072 19.1283C71.9737 18.895 72.2069 18.4985 72.2069 17.9387V15.6529C72.2069 15.2486 72.1214 14.9299 71.9503 14.6966C71.7948 14.4478 71.546 14.269 71.204 14.1602C70.8619 14.0669 70.5586 14.0125 70.2943 13.9969C70.03 13.9658 69.6334 13.9503 69.1048 13.9503H65.7927V19.4781H69.1048Z" fill="#D5B77A"/>
<path d="M53.6696 21.2741C52.8454 21.2741 52.1224 21.2197 51.5004 21.1109C50.894 21.002 50.2953 20.8154 49.7044 20.5511C49.0824 20.2712 48.6004 19.8436 48.2583 19.2682C47.9318 18.6929 47.7685 17.9932 47.7685 17.169V5.90332H49.9377V17.1457C49.9377 18.0942 50.2564 18.7706 50.894 19.1749C51.5315 19.5637 52.4723 19.758 53.7162 19.758C54.9602 19.758 55.8854 19.5637 56.4918 19.1749C57.1138 18.7706 57.4248 18.0942 57.4248 17.1457V5.90332H59.594V17.169C59.594 19.9058 57.6192 21.2741 53.6696 21.2741Z" fill="#D5B77A"/>
<path d="M37.9066 21.0398C33.6615 21.0398 31.539 19.6714 31.539 16.9346V10.0073C31.539 7.11506 33.6615 5.66895 37.9066 5.66895C42.1672 5.66895 44.2975 7.10729 44.2975 9.98397V16.2349C44.2975 17.6655 43.6055 18.8395 42.2216 19.7569H45.9535V21.0398H37.9066ZM37.9532 19.5237C40.7366 19.5237 42.1283 18.6529 42.1283 16.9113V9.93732C42.1283 8.07136 40.7288 7.13839 37.9299 7.13839C37.3079 7.13839 36.7715 7.17726 36.3205 7.25501C35.8696 7.31721 35.442 7.4416 35.0377 7.6282C34.1513 8.04804 33.7082 8.81774 33.7082 9.93732V16.9113C33.7082 18.6529 35.1232 19.5237 37.9532 19.5237Z" fill="#D5B77A"/>
<path d="M154.325 7.73881H149.413V6.2207H161.402V7.73881H156.513V20.7097H154.325V7.73881Z" fill="#BBA98D"/>
<path d="M142.218 20.9326C140.982 20.9326 139.509 20.8135 137.797 20.5753V18.767C139.524 19.1391 141.042 19.3251 142.351 19.3251C143.453 19.3251 144.257 19.2061 144.763 18.9679C145.269 18.7149 145.522 18.2535 145.522 17.5838V15.7085C145.522 15.0834 145.343 14.6443 144.986 14.3913C144.629 14.1383 144.004 14.0118 143.111 14.0118H141.414C140 14.0118 138.995 13.729 138.4 13.1634C137.805 12.5979 137.507 11.7197 137.507 10.5291V9.36816C137.507 8.57934 137.678 7.93935 138.02 7.4482C138.378 6.95705 138.966 6.59241 139.784 6.35427C140.618 6.11614 141.756 5.99707 143.2 5.99707C144.167 5.99707 145.41 6.07893 146.928 6.24265V7.87238C145.231 7.61936 143.937 7.49285 143.044 7.49285C141.659 7.49285 140.744 7.6268 140.298 7.8947C139.836 8.17749 139.606 8.64631 139.606 9.30118V10.9532C139.606 11.4593 139.784 11.8314 140.141 12.0695C140.513 12.2927 141.146 12.4044 142.039 12.4044H143.78C144.777 12.4044 145.551 12.5234 146.102 12.7616C146.668 12.9997 147.062 13.3643 147.285 13.8555C147.523 14.3318 147.643 14.9792 147.643 15.7978V16.8471C147.643 17.874 147.449 18.6852 147.062 19.2805C146.69 19.8758 146.11 20.3 145.321 20.553C144.532 20.806 143.498 20.9326 142.218 20.9326Z" fill="#BBA98D"/>
<path d="M125.093 6.2207H134.827V7.73881H127.259V12.4717H134.09V13.9898H127.259V19.1916H135.05V20.7097H125.093V6.2207Z" fill="#BBA98D"/>
<path d="M115.654 20.9329C114.865 20.9329 114.173 20.8808 113.578 20.7767C112.997 20.6725 112.424 20.4939 111.859 20.2409C111.263 19.973 110.802 19.5637 110.475 19.013C110.162 18.4623 110.006 17.7925 110.006 17.0037V6.2207H112.082V16.9814C112.082 17.8893 112.387 18.5367 112.997 18.9237C113.608 19.2958 114.508 19.4818 115.699 19.4818C116.889 19.4818 117.775 19.2958 118.355 18.9237C118.951 18.5367 119.248 17.8893 119.248 16.9814V6.2207H121.325V17.0037C121.325 19.6232 119.434 20.9329 115.654 20.9329Z" fill="#BBA98D"/>
<path d="M100.567 20.7093C96.5035 20.7093 94.4719 19.3996 94.4719 16.7801V10.1495C94.4719 7.38123 96.5035 5.99707 100.567 5.99707C104.645 5.99707 106.684 7.37378 106.684 10.1272V16.1103C106.684 17.4796 106.021 18.6033 104.697 19.4814H108.269V20.7093H100.567ZM100.611 19.2582C103.275 19.2582 104.608 18.4247 104.608 16.7578V10.0826C104.608 8.29655 103.268 7.40355 100.589 7.40355C99.9937 7.40355 99.4802 7.44076 99.0486 7.51518C98.6169 7.57471 98.2077 7.69378 97.8207 7.87238C96.9723 8.27423 96.5482 9.01096 96.5482 10.0826V16.7578C96.5482 18.4247 97.9025 19.2582 100.611 19.2582Z" fill="#BBA98D"/>
<path d="M161.403 7.739V6.22089H149.414V7.739H154.326V20.7099H156.514V7.739H161.403ZM161.731 8.06731H156.842V21.0382H153.997V8.06731H149.086V5.89258H161.731V8.06731Z" fill="#BBA98D"/>
<path d="M147.643 16.8472V15.7979C147.643 14.9794 147.524 14.3319 147.285 13.8557C147.062 13.3645 146.668 12.9999 146.102 12.7617C145.569 12.531 144.826 12.4121 143.873 12.4049L143.78 12.4045V12.0762C144.795 12.0762 145.619 12.1961 146.229 12.4591H146.23C146.857 12.7235 147.318 13.1397 147.581 13.7129C147.85 14.2522 147.971 14.9553 147.971 15.7979V16.8472C147.971 17.9081 147.772 18.7878 147.34 19.4546L147.341 19.4546C146.92 20.1272 146.27 20.5935 145.421 20.8658C144.587 21.1332 143.515 21.261 142.218 21.261C140.962 21.261 139.473 21.1401 137.752 20.9007L137.469 20.8613V18.3606L137.866 18.4462C139.577 18.815 141.071 18.997 142.352 18.997V19.3253C141.042 19.3253 139.524 19.1392 137.797 18.7672V20.5755C139.455 20.8062 140.89 20.9251 142.101 20.9323L142.218 20.9327C143.458 20.9327 144.467 20.814 145.246 20.5765L145.321 20.5532C146.11 20.3002 146.69 19.876 147.062 19.2807C147.449 18.6853 147.643 17.8741 147.643 16.8472ZM143.78 12.0762V12.4045H142.039V12.0762H143.78ZM139.606 10.9534V9.30132C139.606 8.64646 139.836 8.17763 140.298 7.89485C140.744 7.62696 141.659 7.49299 143.044 7.49299C143.937 7.49299 145.231 7.61952 146.928 7.87253V6.24278C145.41 6.07907 144.167 5.99726 143.2 5.99726C141.756 5.99726 140.618 6.11629 139.784 6.35442C138.966 6.59255 138.378 6.95721 138.02 7.44836L137.989 7.49485C137.668 7.97966 137.507 8.60416 137.507 9.36833V10.5292L137.508 10.64C137.526 11.7745 137.823 12.6157 138.4 13.1636C138.977 13.7115 139.938 13.994 141.283 14.0111L141.414 14.0119H143.111C144.004 14.0119 144.629 14.1385 144.986 14.3915C145.343 14.6445 145.522 15.0835 145.522 15.7086V17.584L145.521 17.6461C145.506 18.2823 145.253 18.723 144.763 18.9681C144.257 19.2063 143.453 19.3253 142.352 19.3253V18.997C143.439 18.997 144.181 18.8776 144.619 18.6729C144.815 18.5741 144.953 18.4413 145.044 18.2744C145.138 18.1036 145.193 17.8784 145.193 17.584V15.7086C145.193 15.1414 145.033 14.8273 144.796 14.6594C144.528 14.4695 143.994 14.3402 143.111 14.3402H141.414C139.972 14.3402 138.861 14.0548 138.174 13.4016C137.489 12.7506 137.179 11.769 137.179 10.5292V9.36833C137.179 8.53346 137.36 7.82191 137.751 7.26061L137.753 7.25791L137.755 7.25529C138.169 6.68563 138.832 6.28962 139.692 6.03919L139.693 6.03894L139.694 6.03874C140.57 5.78852 141.743 5.66895 143.2 5.66895C144.184 5.66895 145.439 5.75205 146.963 5.9164L147.256 5.94801V8.25342L146.88 8.19725C145.187 7.94487 143.912 7.8213 143.044 7.8213C142.36 7.8213 141.803 7.85447 141.367 7.91832C140.924 7.98313 140.634 8.07583 140.467 8.17641C140.126 8.3864 139.934 8.73421 139.934 9.30132V10.9534C139.934 11.3686 140.073 11.6262 140.317 11.792C140.609 11.964 141.161 12.0762 142.039 12.0762V12.4045C141.146 12.4045 140.513 12.2929 140.141 12.0696C139.795 11.839 139.617 11.4825 139.606 11.0005L139.606 10.9534Z" fill="#BBA98D"/>
<path d="M135.049 19.1918H127.258V13.99H134.089V12.4719H127.258V7.739H134.826V6.22089H125.092V20.7099H135.049V19.1918ZM135.154 8.06731H127.586V12.1436H134.417V14.3183H127.586V18.8635H135.377V21.0382H124.764V5.89258H135.154V8.06731Z" fill="#BBA98D"/>
<path d="M112.081 16.9816V6.22089H110.005V17.0039C110.005 17.7927 110.161 18.4625 110.474 19.0132C110.801 19.5639 111.263 19.9732 111.858 20.2411C112.424 20.4941 112.997 20.6726 113.577 20.7768C114.135 20.8745 114.778 20.9264 115.507 20.9325L115.653 20.9332C119.404 20.9332 121.294 19.6438 121.324 17.0651L121.324 17.0039V6.22089H119.248V16.9816L119.247 17.066C119.229 17.9297 118.931 18.549 118.355 18.9239C117.774 19.2959 116.889 19.482 115.698 19.482V19.1537C116.865 19.1537 117.674 18.9694 118.176 18.6484C118.652 18.3388 118.919 17.8132 118.919 16.9816V5.89258H121.652V17.0039C121.652 18.4039 121.14 19.4952 120.093 20.2207C119.068 20.931 117.571 21.2615 115.653 21.2615C114.851 21.2615 114.139 21.2085 113.52 21.1003L113.52 21.1001L113.519 21.1C112.911 20.9909 112.313 20.8041 111.724 20.5407L111.723 20.5405C111.068 20.2454 110.554 19.7908 110.192 19.181L110.188 19.1752C109.842 18.5644 109.677 17.8357 109.677 17.0039V5.89258H112.41V16.9816C112.41 17.8091 112.681 18.3344 113.171 18.6456C113.706 18.9705 114.534 19.1537 115.698 19.1537V19.482C114.545 19.482 113.663 19.3074 113.055 18.9582L112.997 18.9239C112.386 18.5369 112.081 17.8895 112.081 16.9816Z" fill="#BBA98D"/>
<path d="M106.684 10.1274C106.684 7.39545 104.676 6.0188 100.662 5.99745L100.567 5.99726C96.5035 5.99726 94.4719 7.38137 94.4719 10.1497V16.7803L94.4722 16.8414C94.5033 19.3795 96.4717 20.6685 100.378 20.7085L100.567 20.7095H108.269V19.4816H104.697C106.001 18.6172 106.663 17.5148 106.683 16.1745L106.684 16.1105V10.1274ZM104.279 16.7579V10.0827C104.279 9.28538 103.988 8.72483 103.421 8.34666C102.83 7.95283 101.902 7.73204 100.589 7.73204C100.006 7.73204 99.5123 7.76853 99.1043 7.83887L99.0989 7.83983L99.0934 7.84054C98.6933 7.89572 98.3155 8.00579 97.9587 8.17039C97.5897 8.34572 97.3257 8.58652 97.1508 8.8903C96.974 9.19743 96.8764 9.58967 96.8764 10.0827V16.7579C96.8764 17.4841 97.1614 18.0001 97.736 18.3536C98.3367 18.7233 99.2799 18.93 100.611 18.93V19.2584L100.485 19.2577C97.8814 19.2323 96.569 18.412 96.5484 16.7969L96.5481 16.7579V10.0827C96.5481 9.01113 96.9723 8.27439 97.8206 7.87253C98.2076 7.69393 98.6169 7.57484 99.0485 7.5153C99.4801 7.44089 99.9936 7.40373 100.589 7.40373L100.714 7.40437C103.309 7.43184 104.607 8.32462 104.607 10.0827V16.7579L104.607 16.8355C104.566 18.4507 103.234 19.2584 100.611 19.2584V18.93C101.92 18.93 102.845 18.7234 103.434 18.3549C103.998 18.0025 104.279 17.4866 104.279 16.7579ZM107.012 16.1105C107.012 17.3042 106.546 18.3204 105.649 19.1533H108.597V21.0378H100.567C98.5103 21.0378 96.9115 20.7082 95.8177 20.0031C94.6991 19.282 94.1436 18.1904 94.1436 16.7803V10.1497C94.1436 8.67292 94.6927 7.52574 95.8107 6.76404C96.9061 6.01772 98.508 5.66895 100.567 5.66895C102.632 5.66895 104.239 6.01575 105.338 6.75769C106.46 7.51514 107.012 8.65679 107.012 10.1274V16.1105Z" fill="#BBA98D"/>
</svg>
