<svg width="701" height="215" viewBox="0 0 701 215" fill="none" xmlns="http://www.w3.org/2000/svg">
<path d="M96.6885 103.853L75.3499 122.571L93.2853 170.67L93.2874 170.678L93.2895 170.685L93.3241 170.777L96.7273 179.984L87.1795 177.673L87.0978 177.653C73.3656 174.42 60.7654 167.445 50.6595 157.48L50.6511 157.473L50.6438 157.466L50.3275 157.151L50.3233 157.146L50.3192 157.142C35.9723 142.81 28.0706 123.816 28.0706 103.659C28.0706 87.4396 33.1419 71.9921 42.7358 58.984C45.1327 55.7328 47.7956 52.6562 50.6501 49.8391C56.6753 43.8932 63.511 39.0446 71.0232 35.3833L61.6722 9.23535C52.3517 13.4092 43.7201 18.898 35.9566 25.5972L35.6938 25.8252C30.2246 30.5713 25.2402 35.8938 20.8789 41.6431C16.4851 47.4363 12.7018 53.6939 9.63472 60.2414C6.51215 66.907 4.11106 73.9189 2.49847 81.0836C0.840852 88.4438 0 96.0405 0 103.657C0 110.619 0.703677 117.576 2.09113 124.336C3.44299 130.923 5.46082 137.406 8.08809 143.605C10.6693 149.693 13.8652 155.572 17.5888 161.079C21.2768 166.534 25.5156 171.674 30.1869 176.355C34.8571 181.035 40.0007 185.297 45.473 189.022C50.9946 192.78 56.9025 196.026 63.0314 198.67C69.2692 201.36 75.8044 203.455 82.4527 204.894C89.2727 206.371 96.3 207.178 103.341 207.293C103.523 207.295 103.706 207.298 103.889 207.301C104.312 207.308 104.711 207.315 105.101 207.315C114.884 207.315 124.513 206 133.8 203.402L122.406 172.839L96.6864 103.851L96.6885 103.853Z" fill="#1C1C1C"/>
<path d="M175.393 185.131L175.38 185.097L175.368 185.065L174.211 181.807L176.758 179.467L176.784 179.443C181.924 174.714 186.601 169.457 190.685 163.82C194.802 158.137 198.343 152.029 201.209 145.665C204.126 139.187 206.369 132.388 207.875 125.459C209.421 118.341 210.206 111.006 210.207 103.658C210.207 96.7984 209.524 89.9413 208.177 83.2777C206.864 76.7816 204.904 70.3837 202.351 64.2599C199.843 58.246 196.735 52.4287 193.114 46.9723C189.528 41.5672 185.402 36.4623 180.853 31.7999C176.308 27.1407 171.296 22.88 165.96 19.136C160.58 15.3618 154.816 12.077 148.831 9.37292C142.745 6.62381 136.362 4.44481 129.859 2.89765C123.197 1.31179 116.322 0.369268 109.426 0.0951937L108.877 0.074272C107.52 0.025106 106.287 0 105.104 0C96.1996 0 87.3942 1.0963 78.8538 3.26378L88.5241 29.3427C93.9608 28.1679 99.5211 27.5737 105.112 27.5737C112.235 27.5737 119.015 28.4817 125.838 30.3501H125.843L125.848 30.3532L126.145 30.4348L126.155 30.4379L126.166 30.4411L126.439 30.5174L126.445 30.5195L126.451 30.5216C138.87 34.0396 150.321 40.7188 159.563 49.8397C174.129 64.2149 182.151 83.328 182.151 103.66C182.151 118.577 177.808 132.983 169.593 145.32V145.322L169.59 145.324L169.534 145.409L163.828 153.959L160.266 144.32L160.23 144.224L133.538 72.2238L112.206 90.9372L140.09 166.159L153.393 202.041L158.012 214.502L179.343 195.789L175.405 185.168L175.393 185.135V185.131Z" fill="#1C1C1C"/>
<path d="M618.355 46.8975H699.147V59.4979H636.33V98.7818H693.032V111.382H636.33V154.557H701V167.158H618.355V46.8975Z" fill="#1C1C1C"/>
<path d="M504.714 46.8975H547.704C557.957 46.8975 566.11 47.9475 572.163 50.0476C577.723 52.0241 581.429 54.4948 583.282 57.4596C585.258 60.4245 586.246 64.5011 586.246 69.6895V85.8107C586.246 90.6285 584.888 94.3963 582.17 97.1141C579.452 99.7083 575.314 101.623 569.755 102.858V103.6C576.302 104.711 581.552 106.997 585.505 110.456C589.582 113.791 591.62 117.991 591.62 123.056V143.254C591.62 152.025 588.346 158.202 581.799 161.784C575.252 165.367 564.319 167.158 549.001 167.158H504.714V46.8975ZM548.26 99.523C555.795 99.523 561.169 98.4112 564.381 96.1876C567.716 93.8404 569.384 90.1962 569.384 85.2548V71.1719C569.384 66.6012 567.716 63.3893 564.381 61.5363C561.045 59.6832 555.486 58.7567 547.704 58.7567H522.688V99.523H548.26ZM549.001 154.743C558.019 154.743 564.381 153.816 568.087 151.963C571.793 150.11 573.646 146.96 573.646 142.513V124.353C573.646 121.141 572.966 118.609 571.608 116.756C570.372 114.779 568.396 113.359 565.678 112.494C562.96 111.753 560.551 111.321 558.451 111.197C556.351 110.95 553.201 110.826 549.001 110.826H522.688V154.743H549.001Z" fill="#1C1C1C"/>
<path d="M426.372 169.01C419.825 169.01 414.081 168.578 409.139 167.713C404.322 166.848 399.566 165.366 394.871 163.266C389.93 161.042 386.1 157.645 383.383 153.074C380.788 148.503 379.491 142.944 379.491 136.397V46.8965H396.724V136.212C396.724 143.747 399.257 149.121 404.322 152.333C409.386 155.421 416.86 156.965 426.743 156.965C436.626 156.965 443.976 155.421 448.794 152.333C453.735 149.121 456.206 143.747 456.206 136.212V46.8965H473.439V136.397C473.439 158.139 457.75 169.01 426.372 169.01Z" fill="#1C1C1C"/>
<path d="M301.146 167.157C267.421 167.157 250.559 156.286 250.559 134.544V79.51C250.559 56.5326 267.421 45.0439 301.146 45.0439C334.994 45.0439 351.918 56.4709 351.918 79.3247V128.985C351.918 140.351 346.421 149.677 335.427 156.966H365.075V167.157H301.146ZM301.516 155.113C323.629 155.113 334.685 148.195 334.685 134.359V78.9541C334.685 64.13 323.567 56.7179 301.331 56.7179C296.39 56.7179 292.128 57.0268 288.545 57.6444C284.963 58.1386 281.566 59.1268 278.354 60.6092C271.312 63.9447 267.792 70.0596 267.792 78.9541V134.359C267.792 148.195 279.033 155.113 301.516 155.113Z" fill="#1C1C1C"/>
</svg>
