<svg width="227" height="227" viewBox="0 0 227 227" fill="none" xmlns="http://www.w3.org/2000/svg">
<rect width="227" height="227" rx="15" fill="#2B2B2B"/>
<path d="M107.904 111.536L93.0369 124.578L105.533 158.089L105.534 158.094L105.536 158.099L105.56 158.164L107.931 164.578L101.279 162.968L101.222 162.954C91.6544 160.702 82.8757 155.842 75.8347 148.899L75.8289 148.894L75.8238 148.889L75.6035 148.67L75.6005 148.667L75.5976 148.664C65.602 138.678 60.0967 125.445 60.0967 111.402C60.0967 100.101 63.63 89.3387 70.3142 80.2758C71.9841 78.0106 73.8394 75.8672 75.8282 73.9045C80.026 69.7618 84.7886 66.3837 90.0224 63.8329L83.5075 45.6152C77.0137 48.5232 71 52.3474 65.591 57.0147L65.4079 57.1736C61.5974 60.4803 58.1248 64.1885 55.0862 68.1941C52.0249 72.2303 49.3891 76.5902 47.2522 81.1519C45.0767 85.7959 43.4038 90.6812 42.2803 95.6729C41.1254 100.801 40.5396 106.094 40.5396 111.4C40.5396 116.25 41.0298 121.098 41.9965 125.808C42.9383 130.397 44.3442 134.913 46.1746 139.232C47.973 143.474 50.1996 147.57 52.7939 151.407C55.3634 155.207 58.3166 158.789 61.5712 162.05C64.825 165.31 68.4086 168.28 72.2212 170.875C76.0682 173.494 80.1843 175.755 84.4544 177.597C88.8004 179.471 93.3535 180.93 97.9855 181.933C102.737 182.962 107.633 183.524 112.539 183.605C112.666 183.606 112.793 183.608 112.92 183.61C113.215 183.615 113.493 183.62 113.765 183.62C120.581 183.62 127.29 182.704 133.76 180.894L125.822 159.6L107.902 111.535L107.904 111.536Z" fill="#D5B77A"/>
<path d="M162.744 168.167L162.736 168.144L162.728 168.121L161.921 165.851L163.696 164.221L163.714 164.204C167.295 160.909 170.553 157.247 173.399 153.319C176.267 149.36 178.734 145.104 180.731 140.671C182.763 136.157 184.326 131.42 185.375 126.593C186.453 121.634 186.999 116.523 187 111.403C187 106.624 186.524 101.847 185.586 97.2044C184.671 92.6784 183.305 88.2209 181.527 83.9544C179.779 79.7644 177.614 75.7114 175.091 71.9099C172.593 68.1441 169.718 64.5874 166.549 61.3391C163.382 58.0929 159.89 55.1244 156.172 52.5159C152.424 49.8863 148.409 47.5978 144.238 45.7138C139.998 43.7985 135.551 42.2804 131.02 41.2024C126.379 40.0975 121.589 39.4409 116.784 39.2499L116.402 39.2353C115.457 39.2011 114.597 39.1836 113.774 39.1836C107.569 39.1836 101.435 39.9474 95.4844 41.4575L102.222 59.627C106.01 58.8086 109.884 58.3946 113.779 58.3946C118.742 58.3946 123.465 59.0272 128.219 60.3289H128.222L128.226 60.3311L128.433 60.3879L128.44 60.3901L128.447 60.3923L128.638 60.4455L128.642 60.447L128.646 60.4484C137.299 62.8995 145.277 67.553 151.716 73.9076C161.864 83.923 167.453 97.2394 167.453 111.405C167.453 121.798 164.427 131.835 158.704 140.43V140.432L158.702 140.433L158.662 140.492L154.687 146.449L152.205 139.733L152.18 139.666L133.584 89.5029L118.721 102.541L138.149 154.949L147.417 179.948L150.635 188.63L165.497 175.593L162.753 168.193L162.744 168.17V168.167Z" fill="#D5B77A"/>
</svg>
