<svg width="21" height="19" viewBox="0 0 21 19" fill="none" xmlns="http://www.w3.org/2000/svg">
<path d="M1.83561 7.70654C1.93532 7.74538 2.13686 7.79891 2.31215 7.89758C3.95278 8.82339 5.59026 9.75549 7.22458 10.6928C7.38728 10.7863 7.49225 10.7978 7.65075 10.6645C11.5072 7.41579 15.371 4.17547 19.2296 0.929909C19.4868 0.713679 19.7502 0.536285 20.1008 0.571974C20.4818 0.610811 20.76 0.810248 20.9206 1.15664C21.077 1.49463 20.9878 1.80113 20.7726 2.08559C19.0029 4.42739 17.2342 6.76919 15.4645 9.111C13.1206 12.2128 10.7766 15.3156 8.4317 18.4173C7.9478 19.0587 7.20884 19.0345 6.77953 18.3522C4.85339 15.2893 2.93251 12.2254 1.01267 9.15928C0.810084 8.83598 0.754451 8.4812 0.94654 8.13691C1.11134 7.84195 1.39895 7.72649 1.83561 7.70759V7.70654Z" fill="#4BAE4F"/>
</svg>
