<svg width="605" height="139" viewBox="0 0 605 139" fill="none" xmlns="http://www.w3.org/2000/svg">
<g clip-path="url(#clip0_3031_2)">
<rect x="0.5" y="0.5" width="604" height="138" rx="14.5" fill="#1C1C1C" stroke="#D5B77A"/>
<g opacity="0.1">
<path d="M587.793 141.834L437.083 182.217C436.726 182.186 436.364 182.111 436.008 182.133C429.84 182.521 424.379 180.733 420.037 176.34C418.072 174.352 416.685 171.791 415.034 169.491C401.576 119.266 388.118 69.0386 374.66 18.8137C374.705 18.5764 374.808 18.3364 374.791 18.1054C374.05 7.53074 380.129 -1.26343 390.283 -3.99166C438.571 -16.9633 486.868 -29.8995 535.182 -42.7868C537.319 -43.3569 539.629 -43.6014 541.84 -43.5159C551.226 -43.1592 558.534 -36.9171 561.131 -27.2344C573.912 20.4468 586.684 68.1306 599.46 115.813C599.638 116.476 599.816 117.142 599.973 117.811C601.983 126.353 598.261 135.406 590.818 140.055C589.828 140.674 588.803 141.242 587.796 141.836L587.793 141.834ZM523.037 102.099C526.36 105.163 529.534 108.143 532.798 111.023C533.119 111.304 534.122 111.174 534.582 110.881C545.05 104.236 554.167 96.0623 561.963 86.4258C562.404 85.8802 562.68 84.9258 562.56 84.2443C560.904 74.7319 558.245 65.5061 554.353 56.6562C547.249 40.5022 536.749 26.865 523.518 15.2775C522.861 14.7022 521.94 14.2506 521.079 14.1068C512.051 12.6041 502.969 12.3152 493.846 13.0064C492.894 13.0793 492.367 13.3573 492.207 14.3666C491.935 16.0892 491.476 17.7858 491.251 19.5135C491.081 20.7986 490.65 21.3898 489.223 21.5674C479.815 22.7447 470.711 25.1411 461.98 28.852C460.617 29.4322 459.891 29.1687 459.061 28.0427C458.103 26.7433 456.873 25.6483 455.861 24.3837C455.093 23.4256 454.397 23.3086 453.322 23.9332C448.366 26.8147 443.234 29.4169 438.415 32.5095C429.123 38.4731 429.158 38.6308 426.385 49.2817C426.338 49.4639 426.293 49.6455 426.248 49.8271C420.099 73.5627 421.305 96.9392 429.74 119.942C429.945 120.497 430.494 121.122 431.031 121.332C442.705 125.863 454.808 128.398 467.319 128.937C467.813 128.959 468.661 128.593 468.786 128.218C470.183 124.043 471.471 119.835 472.804 115.584C468.246 114.702 464.137 113.906 459.936 113.091C460.9 110.798 461.953 109.97 464.342 110.301C488.06 113.591 509.403 107.89 528.223 92.9945C529.887 91.6783 530.962 91.8079 532.75 93.7602C529.637 96.431 526.53 99.1006 523.039 102.098L523.037 102.099Z" fill="#D5B77A"/>
<path d="M523.082 65.0205C523.933 68.6307 523.755 72.1195 522.143 75.4634C518.969 82.0497 511.393 84.1708 505.193 80.2457C498.883 76.2537 496.526 67.2961 500.12 60.749C502.308 56.7623 505.722 54.547 510.289 54.5377C515.46 54.526 519.1 57.2499 521.602 61.6017C522.217 62.6715 522.596 63.878 523.083 65.0229L523.082 65.0205Z" fill="#D5B77A"/>
<path d="M478.64 77.0694C479.493 80.8361 479.221 84.4307 477.4 87.8333C474.012 94.1659 466.584 96.0296 460.58 92.0923C454.832 88.3244 452.35 80.4224 454.981 74.0676C456.863 69.5228 460.248 66.7537 465.196 66.4677C470.431 66.168 474.249 68.7934 476.905 73.1522C477.642 74.3616 478.069 75.7576 478.64 77.067L478.64 77.0694Z" fill="#D5B77A"/>
</g>
</g>
<defs>
<clipPath id="clip0_3031_2">
<rect width="605" height="139" fill="white"/>
</clipPath>
</defs>
</svg>
