<svg width="605" height="139" viewBox="0 0 605 139" fill="none" xmlns="http://www.w3.org/2000/svg">
<g clip-path="url(#clip0_3032_16)">
<rect x="0.5" y="0.5" width="604" height="138" rx="14.5" fill="#1C1C1C" stroke="#D5B77A"/>
<g opacity="0.1">
<path d="M559.109 -32.9269L600.317 120.862C600.286 121.228 600.208 121.595 600.23 121.957C600.644 128.554 598.593 134.276 593.793 138.806C591.895 140.598 589.496 141.858 587.327 143.361L433.535 184.57C433.358 184.516 433.171 184.394 433.005 184.416C423.909 185.625 413.158 179.869 409.941 167.723C397.039 119.018 383.912 70.3733 370.9 21.6975C370.376 19.7431 369.957 17.7011 369.896 15.6887C369.589 5.47803 376.003 -2.87348 386.182 -5.6053C427.947 -16.8117 469.717 -27.9949 511.486 -39.1869C519.063 -41.2171 526.601 -43.4135 534.23 -45.224C542.901 -47.2804 550.224 -44.7024 555.939 -37.8591C557.182 -36.3709 558.062 -34.5801 559.108 -32.9289L559.109 -32.9269ZM487.623 49.8452C486.954 49.299 486.415 48.8788 485.897 48.4354C471.501 36.1433 457.098 23.8594 442.735 11.5274C441.684 10.625 440.786 10.4578 439.479 10.8146C428.033 13.9321 416.57 16.9816 405.11 20.0523L402.902 20.6439C426.42 40.7366 449.601 60.5426 472.896 80.4458C461.385 104.367 449.907 128.219 438.243 152.455C441.793 151.504 444.849 150.628 447.936 149.887C449.165 149.591 449.852 148.985 450.402 147.837C459.905 127.996 469.457 108.176 479 88.3556C479.288 87.7581 479.612 87.1797 479.964 86.5031C480.717 87.1414 481.299 87.6317 481.879 88.1267C497.049 101.083 512.228 114.032 527.374 127.014C528.327 127.83 529.128 128.145 530.421 127.792C542.048 124.614 553.698 121.519 565.339 118.393C565.849 118.257 566.341 118.043 567.066 117.785C542.794 97.048 518.729 76.4866 494.631 55.901C505.624 33.0595 516.547 10.3557 527.683 -12.7889C524.039 -11.8124 520.936 -11.0801 517.91 -10.1083C517.022 -9.82418 516.035 -9.01496 515.631 -8.18562C508.924 5.56937 502.301 19.3679 495.661 33.1559C493.008 38.6627 490.354 44.1696 487.62 49.8504L487.623 49.8452Z" fill="#D5B77A"/>
<path d="M549.378 113.919C543.633 115.459 538.287 116.942 532.903 118.268C532.245 118.429 531.226 117.919 530.627 117.418C515.036 104.372 499.478 91.2842 483.913 78.2047C463.47 61.0258 443.027 43.8468 422.585 26.6652C422.065 26.2292 421.571 25.7617 420.884 25.1476C421.625 24.9026 422.133 24.707 422.657 24.5643C427.276 23.3203 431.905 22.1174 436.51 20.824C437.654 20.5019 438.471 20.5961 439.437 21.4111C475.615 51.862 511.822 82.2788 548.024 112.701C548.397 113.016 548.753 113.355 549.38 113.919L549.378 113.919Z" fill="#D5B77A"/>
</g>
</g>
<defs>
<clipPath id="clip0_3032_16">
<rect width="605" height="139" fill="white"/>
</clipPath>
</defs>
</svg>
